<?xml version="1.0"?>
<svg width="66" height="68" xmlns="http://www.w3.org/2000/svg" xmlns:svg="http://www.w3.org/2000/svg">
 <g class="layer">
  <title>Layer 1</title>
  <path d="m11.63,42.78l-0.01,0.01l0,0.01c-0.01,0.03 -0.01,0.06 -0.03,0.08l-0.01,0.01l0.01,0.01c-0.01,0.03 -0.01,0.06 -0.03,0.08l0,0c-0.02,0.02 -0.01,0.05 -0.03,0.07l0,0c-0.02,0.02 -0.02,0.05 -0.04,0.06l0,0.01c-0.02,0.01 -0.01,0.04 -0.03,0.06c-0.02,0.02 -0.01,0.05 -0.04,0.06l0,0c0,0.02 -0.01,0.03 -0.02,0.04l-0.01,0c-0.02,0.02 -0.01,0.05 -0.04,0.06l0.01,0c-0.01,0.02 -0.02,0.03 -0.03,0.04l0,0c-0.01,0.01 -0.02,0.02 -0.03,0.03l-0.01,0c-0.05,0.08 -0.12,0.15 -0.19,0.2l-0.01,0c-0.01,0.01 -0.02,0.02 -0.03,0.03c-0.01,0.02 -0.02,0.03 -0.04,0.03c0,0.03 -0.04,0.02 -0.05,0.04l-0.01,0c-0.01,0.01 -0.02,0.02 -0.03,0.03c-0.02,0.03 -0.05,0.02 -0.07,0.04l0,0c-0.01,0.02 -0.04,0.01 -0.06,0.03l0,0c-0.02,0.02 -0.05,0.02 -0.07,0.03l0,0c-0.02,0.02 -0.05,0.02 -0.07,0.03l0,0c-0.02,0.04 -0.07,0.01 -0.09,0.04l-0.01,0c-0.02,0.03 -0.07,0.01 -0.1,0.03l-0.02,0l-0.01,0.01c-0.02,0.02 -0.07,0 -0.09,0.03l-0.01,0c-0.03,0.03 -0.07,0.01 -0.1,0.03l-0.02,-0.01l-0.01,0.01c-0.03,0.03 -0.07,0 -0.1,0.03l0,0c-0.03,0.04 -0.09,0 -0.13,0.03l0,0.01c-0.03,0.02 -0.08,0.01 -0.11,0.03l-0.01,-0.01l-0.01,0.01c-0.03,0.03 -0.07,0.01 -0.1,0.03l0,0c-0.04,0.04 -0.1,0 -0.13,0.03l0,0c-0.04,0.04 -0.1,0 -0.14,0.04l0,0c-0.03,0.04 -0.09,0 -0.13,0.03l0,0c-0.04,0.04 -0.09,0 -0.13,0.03l0,0c-0.03,0.03 -0.08,0.02 -0.12,0.03l0,0l-0.01,0.01c-0.03,0.03 -0.08,0.01 -0.12,0.03l-0.01,-0.01l0,0.01c-0.04,0.03 -0.08,0.01 -0.11,0.03l-0.02,0l-0.01,0c-0.03,0.03 -0.07,0.01 -0.11,0.03l-0.01,0l-0.01,0.01c-0.03,0.03 -0.07,0 -0.1,0.03l0,0c-0.04,0.04 -0.1,0 -0.13,0.03l0,0c-0.04,0.04 -0.1,0 -0.13,0.03l-0.01,0c-0.03,0.03 -0.07,0.02 -0.11,0.03l-0.01,0l-0.01,0.01c-0.03,0.03 -0.07,0.01 -0.11,0.03l-0.01,-0.01l-0.01,0.01c-0.03,0.03 -0.07,0.01 -0.11,0.03l-0.01,0l-0.01,0.01c-0.03,0.02 -0.07,0 -0.1,0.02l0,0c-0.04,0.05 -0.1,0 -0.14,0.04l0,0c-0.03,0.04 -0.09,0 -0.13,0.03l0,0c-0.03,0.04 -0.09,0 -0.13,0.03l0,0.01c-0.03,0.03 -0.08,0.01 -0.11,0.03l-0.01,-0.01l-0.01,0.01c-0.03,0.03 -0.08,0.01 -0.11,0.03l-0.01,0l-0.01,0c-0.03,0.03 -0.08,0.01 -0.11,0.03l-0.02,0l-0.01,0.01c-0.03,0.02 -0.07,0 -0.1,0.03c-0.3,0.05 -0.59,0.14 -0.88,0.21c-1.27,0.33 -2.55,0.66 -3.82,0.99c-0.28,0.08 -0.57,0.11 -0.86,0.04c-0.69,-0.16 -1.11,-0.6 -1.3,-1.27c-0.03,-0.09 -0.03,-0.18 -0.06,-0.27c0,-0.03 0,-0.06 0,-0.1c0.04,-0.06 0.01,-0.12 0.02,-0.18c0,-0.05 0.03,-0.09 0.03,-0.14c0,-0.01 0.01,-0.03 0.01,-0.04c0.01,-0.01 0.01,-0.02 0.01,-0.03c0.02,-0.03 0,-0.07 0.03,-0.1l0.01,-0.01l-0.01,-0.01c0.01,-0.03 0.01,-0.06 0.03,-0.08l0,0c0.02,-0.02 0.02,-0.05 0.03,-0.07c0.01,-0.01 0.01,-0.01 0.01,-0.02c0.01,-0.03 0.01,-0.06 0.03,-0.08l0,0.01c0.02,-0.03 0.01,-0.06 0.04,-0.07l0,0c0,-0.02 0.01,-0.03 0.02,-0.04l0,0c0.03,-0.02 0.02,-0.05 0.04,-0.06l0,0c0.01,-0.02 0.02,-0.03 0.03,-0.04l0,0c0.02,-0.02 0.01,-0.05 0.04,-0.06l0,0c0,-0.02 0.02,-0.03 0.03,-0.04l0,0c0.01,-0.01 0.02,-0.02 0.03,-0.03l0,0c0.01,-0.01 0.02,-0.02 0.03,-0.04l0,0c0.02,-0.01 0.03,-0.02 0.03,-0.03l0.01,-0.01c0.01,0 0.02,-0.01 0.02,-0.02l0.01,-0.01c0.01,0 0.02,-0.01 0.03,-0.02l0,-0.01c0.02,-0.01 0.03,-0.01 0.03,-0.03l0.01,0c0.01,-0.01 0.02,-0.02 0.03,-0.03l0,0c0.01,-0.01 0.02,-0.02 0.04,-0.03l0,0c0.01,-0.02 0.02,-0.03 0.04,-0.03c0.01,0 0.02,0 0.02,-0.01c0.01,-0.01 0.02,-0.02 0.03,-0.03l0,0c0.02,-0.01 0.03,-0.02 0.05,-0.03c0.01,0.01 0.02,0 0.02,-0.01c0.01,-0.01 0.02,-0.01 0.03,-0.02c0.02,-0.02 0.05,-0.02 0.07,-0.04l0,0c0.02,-0.02 0.05,-0.01 0.07,-0.03l0,0c0.02,-0.02 0.05,-0.02 0.07,-0.03c0.01,0 0.02,0 0.02,-0.01c0.02,-0.01 0.05,-0.01 0.07,-0.03c0.01,0 0.02,0 0.03,0c0.02,-0.02 0.05,-0.01 0.07,-0.03c0.01,0 0.02,0 0.03,-0.01c0.02,-0.01 0.05,0 0.07,-0.02c0.01,0 0.02,-0.01 0.03,-0.01c0.03,-0.01 0.06,-0.01 0.09,-0.02c0.01,-0.01 0.03,-0.01 0.05,-0.01c0.02,-0.01 0.05,-0.02 0.08,-0.03c0.01,0 0.03,0 0.05,-0.01c0.02,-0.01 0.05,-0.01 0.08,-0.02c0.02,0 0.03,-0.01 0.05,-0.01c0.03,-0.01 0.06,-0.01 0.08,-0.02c0.02,-0.01 0.04,-0.01 0.05,-0.01c0.03,-0.01 0.06,-0.02 0.08,-0.03c0.02,0 0.04,0 0.06,-0.01c0.02,-0.01 0.05,-0.01 0.07,-0.02c0.01,0.01 0.02,0.01 0.03,0c0.03,-0.03 0.07,-0.01 0.1,-0.03c0.01,0 0.02,0 0.03,-0.01c0.03,-0.02 0.07,0 0.1,-0.03c0.01,0 0.02,0 0.03,0c0.03,-0.03 0.07,0 0.1,-0.03c0.01,0 0.02,-0.01 0.03,-0.01c0.03,-0.01 0.06,-0.01 0.09,-0.02c0.01,0 0.03,-0.01 0.05,-0.01c0.02,-0.01 0.05,-0.02 0.07,-0.02c0.02,-0.01 0.04,-0.01 0.06,-0.01c0.02,-0.02 0.05,-0.02 0.07,-0.03c0.01,0.01 0.02,0.01 0.03,0c0.03,-0.03 0.07,-0.01 0.1,-0.03c0.01,0 0.02,0 0.03,-0.01c0.03,-0.02 0.07,0 0.1,-0.03c0.01,0 0.02,0 0.03,0c0.03,-0.03 0.07,0 0.1,-0.03c0.01,0 0.02,0 0.04,-0.01c0.02,-0.02 0.07,0.01 0.09,-0.02c0.01,-0.01 0.03,-0.01 0.04,-0.01c0.02,-0.01 0.05,-0.01 0.08,-0.02c0.02,-0.01 0.03,-0.01 0.05,-0.01c0.02,-0.02 0.05,-0.02 0.08,-0.03c0.01,0.01 0.01,0.01 0.02,0c0.03,-0.03 0.07,-0.01 0.1,-0.03c0.02,0.01 0.03,0 0.03,-0.01c0.03,-0.02 0.08,0 0.1,-0.02c0.02,-0.01 0.02,-0.01 0.04,-0.01c0.02,-0.02 0.07,0 0.09,-0.03c0.02,0 0.03,0 0.04,0c0.03,-0.03 0.07,0 0.1,-0.03c0.01,0 0.02,-0.01 0.03,-0.01c0.03,-0.01 0.05,-0.01 0.08,-0.02c0.02,-0.01 0.04,-0.01 0.05,-0.01c0.03,-0.01 0.06,-0.02 0.08,-0.03c0.01,0.01 0.02,0.01 0.02,0c0.03,-0.03 0.08,-0.01 0.11,-0.03c0.01,0.01 0.02,0.01 0.03,0c0.03,-0.03 0.07,-0.01 0.1,-0.03c0.01,0 0.02,0 0.03,-0.01c0.03,-0.02 0.07,0 0.1,-0.03c0.01,0 0.02,0 0.03,0c0.03,-0.03 0.07,0 0.1,-0.03c0.01,0 0.02,-0.01 0.03,-0.01c0.03,-0.01 0.06,-0.01 0.08,-0.02c0.02,0 0.04,-0.01 0.06,-0.01c0.02,-0.01 0.05,-0.01 0.07,-0.02l0.02,0l0,-0.01c0.04,-0.03 0.08,-0.01 0.11,-0.03c0.01,0.01 0.02,0.01 0.03,0c0.03,-0.03 0.07,-0.01 0.1,-0.03c0.01,0 0.02,0 0.03,-0.01c0.03,-0.02 0.07,0 0.1,-0.03c0.01,0 0.02,0 0.03,0c0.03,-0.03 0.07,0 0.1,-0.03c0.01,0 0.02,0 0.04,-0.01c0.02,-0.01 0.05,-0.01 0.08,-0.02c0.01,0 0.03,-0.01 0.05,-0.01c0.02,-0.01 0.05,-0.01 0.08,-0.02c0.01,-0.01 0.03,-0.01 0.05,-0.01c0.02,-0.02 0.05,-0.02 0.07,-0.03c0.01,0.01 0.02,0.01 0.03,0c0.03,-0.03 0.07,-0.01 0.1,-0.03c0.02,0.01 0.02,0 0.03,-0.01c0.03,-0.02 0.07,0 0.1,-0.02c0.01,-0.01 0.02,-0.01 0.03,-0.01c0.03,-0.02 0.08,0 0.1,-0.03c0.02,0 0.03,0 0.04,0c0.03,-0.03 0.07,0 0.09,-0.03c0.02,0 0.03,-0.01 0.04,-0.01c0.02,-0.01 0.05,-0.01 0.08,-0.02c0.02,-0.01 0.03,-0.01 0.05,-0.01c0.03,-0.01 0.05,-0.01 0.08,-0.03c0.01,0.01 0.02,0.01 0.02,0c0.03,-0.03 0.08,-0.01 0.11,-0.03c0.01,0.01 0.02,0 0.02,-0.01c0.03,-0.02 0.08,0 0.11,-0.02c0.01,-0.01 0.02,-0.01 0.03,-0.01c0.03,-0.02 0.07,0 0.1,-0.03c0.01,0 0.02,0 0.03,0c0.03,-0.03 0.07,0 0.1,-0.03c0.01,0 0.02,-0.01 0.03,-0.01c0.03,-0.01 0.05,-0.01 0.08,-0.02c0.02,-0.01 0.04,-0.01 0.05,-0.01c0.03,-0.01 0.06,-0.01 0.08,-0.02c0.01,0 0.02,0 0.02,-0.01c0.03,-0.03 0.08,-0.01 0.11,-0.03c0.01,0.01 0.02,0.01 0.03,0c0.03,-0.03 0.07,-0.01 0.1,-0.03c0.01,0 0.02,0 0.03,-0.01c0.03,-0.02 0.07,0 0.1,-0.03c0.01,0 0.02,0 0.03,0c0.03,-0.03 0.07,0 0.1,-0.03c0.01,0 0.02,0 0.03,-0.01c0.03,-0.01 0.06,-0.01 0.08,-0.02c0.02,0 0.04,-0.01 0.06,-0.01c0.02,-0.01 0.05,-0.01 0.07,-0.02c0.01,0 0.02,0 0.03,-0.01c0.03,-0.03 0.07,0 0.1,-0.03c0.01,0.01 0.02,0.01 0.03,0c0.03,-0.03 0.07,-0.01 0.1,-0.03c0.01,0 0.02,0 0.03,-0.01c0.03,-0.02 0.07,0 0.1,-0.03c0.01,0 0.02,0 0.03,0c0.03,-0.02 0.07,0 0.1,-0.03c0.01,0 0.02,0 0.04,-0.01c0.02,-0.01 0.05,-0.01 0.08,-0.02c0.01,0 0.03,-0.01 0.05,-0.01c0.02,-0.01 0.05,-0.01 0.08,-0.02c0.01,-0.01 0.03,-0.01 0.05,-0.01c0.02,-0.01 0.05,-0.01 0.07,-0.03c0.01,0.01 0.02,0.01 0.03,0c0.03,-0.03 0.07,-0.01 0.1,-0.03c0.01,0.01 0.02,0 0.03,-0.01c0.03,-0.02 0.07,0 0.1,-0.02c0.01,-0.01 0.02,-0.01 0.03,-0.01c0.04,-0.02 0.08,-0.01 0.12,-0.03c0.01,0 0.03,0 0.05,0c0.06,-0.03 0.12,0 0.18,-0.03c0.1,0 0.21,0 0.31,0c0.05,0.03 0.12,0 0.17,0.03c0.01,0 0.03,0 0.04,0c0.02,0.03 0.07,0.01 0.09,0.03c0.02,0 0.02,0 0.04,0.01c0.02,0.01 0.04,0.01 0.06,0.02c0.01,0.01 0.02,0.01 0.03,0.01c0.02,0.01 0.05,0.01 0.07,0.03l0,0c0.02,0.02 0.05,0.01 0.07,0.03l0,0c0.02,0.02 0.05,0.01 0.06,0.04l0.01,0c0.01,0.01 0.05,0.01 0.06,0.03l0,0c0.01,0.01 0.02,0.02 0.04,0.03l0,0c0.01,0.02 0.05,0.01 0.06,0.04l0,0c0.01,0 0.02,0.01 0.03,0.02l0.01,0.01c0.01,0.02 0.05,0.01 0.06,0.04l-0.01,0c0.02,0 0.03,0.01 0.04,0.03l0,0c0.01,0 0.03,0.01 0.04,0.03l0,0c0.01,0.01 0.02,0.02 0.03,0.03l0,0c0.01,0.01 0.02,0.02 0.03,0.03l0.01,0c0,0.01 0.01,0.02 0.03,0.03l0,0.01c0.01,0.01 0.02,0.02 0.03,0.02l0,0.01c0.01,0.01 0.02,0.02 0.03,0.03l0,0c0.01,0.01 0.02,0.03 0.03,0.04l0,0c0.02,0.01 0.03,0.02 0.03,0.03l0,0c0.02,0.01 0.03,0.02 0.03,0.04l0.01,0l-0.01,0c0.03,0.01 0.02,0.04 0.04,0.06l0,0c0.02,0.01 0.03,0.02 0.03,0.04l0,0c0.03,0.01 0.02,0.04 0.04,0.06l0,0c0.02,0.01 0.01,0.05 0.03,0.07l0,-0.01c0.02,0.02 0.02,0.05 0.03,0.07l0,0c0.03,0.02 0.02,0.05 0.03,0.08l0,0.01l0.01,0.01c0.02,0.02 0.02,0.05 0.03,0.08l-0.01,0.01l0.01,0.01c0.03,0.03 0.01,0.08 0.03,0.11c0,0.02 0.01,0.04 0.01,0.06c0.02,0.15 0.02,0.3 0,0.46c0,0.02 -0.01,0.03 -0.01,0.05c-0.02,0.05 0,0.1 -0.03,0.15c-0.01,0 -0.01,0.01 0,0.02c-0.03,0.04 -0.01,0.08 -0.03,0.11z" fill="#eb4034" id="svg_1"/>
  <path d="m0.49,15.81c0.01,0 0.01,-0.01 0,-0.03c0.04,-0.04 0,-0.09 0.04,-0.13l0,-0.01l0,-0.01c0.01,-0.03 0.01,-0.06 0.03,-0.08l0.01,-0.01l-0.01,-0.01c0.01,-0.03 0.01,-0.06 0.03,-0.08l0,0c0.02,-0.02 0.02,-0.05 0.04,-0.07c0.01,-0.01 0.01,-0.05 0.03,-0.06c0.02,-0.02 0.01,-0.05 0.04,-0.07l-0.01,0.01c0.01,-0.02 0.02,-0.03 0.03,-0.04l0,-0.01c0.03,-0.01 0.02,-0.04 0.04,-0.06l0,0.01c0.01,-0.02 0.02,-0.03 0.03,-0.04l0,0c0.01,-0.01 0.02,-0.02 0.03,-0.04l0,0c0.03,-0.01 0.02,-0.05 0.05,-0.05l-0.01,0c0.01,-0.02 0.02,-0.03 0.04,-0.04l-0.01,0c0.01,-0.02 0.02,-0.03 0.04,-0.03l0,0c0,-0.02 0.01,-0.03 0.03,-0.04l0,0c0.01,-0.01 0.02,-0.02 0.03,-0.03l0,0c0.01,-0.01 0.02,-0.03 0.04,-0.03l0,0c0,-0.02 0.01,-0.03 0.03,-0.03l0,0c0.01,-0.03 0.05,-0.02 0.05,-0.04l0.01,-0.01c0.01,-0.01 0.02,-0.01 0.03,-0.03l0.01,0c0.01,-0.01 0.02,-0.02 0.03,-0.03l0,0c0.01,-0.01 0.02,-0.03 0.05,-0.03l0.01,0l0,-0.01c0.02,-0.01 0.03,-0.01 0.04,-0.02c0.01,-0.03 0.05,-0.02 0.06,-0.04l0.01,0c0.01,-0.01 0.02,-0.03 0.04,-0.03l0.01,0.01l0.01,-0.01c0.02,-0.02 0.05,-0.01 0.06,-0.04l0.01,0c0.02,-0.01 0.05,-0.01 0.06,-0.03c0.01,0 0.03,0 0.04,0c0.02,-0.02 0.04,-0.01 0.06,-0.03c0.01,0 0.02,0 0.04,-0.01c0.02,-0.01 0.05,-0.01 0.07,-0.02c0.02,0 0.04,-0.01 0.06,-0.01c0.04,-0.02 0.09,0 0.14,-0.02c0.04,-0.01 0.08,-0.01 0.12,-0.01c0.05,-0.02 0.09,-0.02 0.13,0c0.05,0 0.09,0 0.13,0.01c0.04,0.02 0.1,0 0.14,0.02c0.02,0 0.04,0.01 0.05,0.01c0.03,0.01 0.06,0.01 0.08,0.02c0.01,0.01 0.03,0.01 0.04,0.01c0.01,0.02 0.04,0.01 0.06,0.03c0.01,0 0.02,0 0.03,0c0.02,0.02 0.05,0.02 0.07,0.03l0.01,0.01l0.01,0c0.02,0 0.03,0.01 0.05,0.02c0,0.01 0.01,0.02 0.02,0.01c0.02,0.01 0.03,0.02 0.04,0.03c0.01,0.01 0.02,0.01 0.03,0.01c0.01,0 0.03,0.01 0.04,0.02l0.01,0c0.01,0.03 0.04,0.02 0.06,0.04l0,0c0.01,0.02 0.05,0.01 0.06,0.03c0.01,0.01 0.02,0.02 0.04,0.03c0,0.01 0.01,0.01 0.02,0.01c0.02,0 0.03,0.01 0.04,0.02l0.01,0.01l0.01,0c0.02,0 0.03,0.02 0.05,0.03l0,0c0.02,0.02 0.05,0.01 0.06,0.04c0.01,0.01 0.03,0.01 0.04,0.02c0,0.01 0.01,0.01 0.02,0.01c0.02,0 0.03,0.02 0.04,0.03l0.01,0c0.01,0.02 0.04,0.01 0.06,0.03l0,0c0.02,0.02 0.05,0.02 0.06,0.04l0,0c0.02,0.01 0.03,0.02 0.04,0.02c0,0.01 0.01,0.02 0.02,0.01c0.02,0.01 0.03,0.02 0.05,0.03l0,0c0.01,0.02 0.05,0.01 0.06,0.04c0.01,0.01 0.02,0.01 0.04,0.02c0,0.01 0.01,0.02 0.02,0.01c0.02,0.01 0.03,0.02 0.04,0.03l0,0c0.02,0.02 0.05,0.01 0.07,0.04c0.01,0.01 0.02,0.01 0.03,0.02c0,0.01 0.01,0.02 0.02,0.01c0.02,0 0.03,0.02 0.05,0.03l0,0c0.02,0.02 0.05,0.01 0.06,0.04l0,0c0.02,0.01 0.05,0.01 0.06,0.03l0,0c0.02,0.01 0.03,0.02 0.04,0.03l0.01,0.01l0.01,-0.01c0.02,0.01 0.03,0.02 0.05,0.03l0,0c0.02,0.02 0.05,0.02 0.06,0.04l0,0c0.01,0.01 0.03,0.02 0.04,0.02c0,0.01 0.01,0.02 0.02,0.01c0.02,0.01 0.03,0.02 0.04,0.03l0.01,0c0.01,0.02 0.04,0.01 0.06,0.04c0.01,0.01 0.02,0.01 0.03,0.02c0.01,0.01 0.01,0.02 0.03,0.01c0.01,0.01 0.03,0.02 0.04,0.03l0,0c0.02,0.02 0.05,0.02 0.06,0.04l0.01,0c0.01,0.01 0.05,0.01 0.06,0.03l0,0c0.01,0.01 0.02,0.02 0.04,0.03l0,0c0.01,0.02 0.05,0.01 0.06,0.03l0,0.01c0.02,0.01 0.05,0.01 0.06,0.03l0,0c0.02,0.01 0.03,0.02 0.04,0.03c0,0.01 0.01,0.01 0.02,0c0.02,0.01 0.03,0.02 0.05,0.03l0,0c0.02,0.02 0.05,0.02 0.06,0.04c0.01,0.01 0.02,0.02 0.04,0.02c0,0.01 0.01,0.02 0.02,0.01c0.02,0.01 0.03,0.02 0.04,0.03l0.01,0c0.01,0.02 0.04,0.02 0.06,0.04l0,0c0.02,0.02 0.05,0.01 0.06,0.03l0,0c0.01,0.01 0.03,0.02 0.04,0.03l0,0.01l0.02,0c0.02,0 0.03,0.01 0.04,0.03l0.01,0c0.01,0.02 0.04,0.01 0.06,0.03l0,0c0.01,0.01 0.02,0.02 0.03,0.03c0.01,0.01 0.01,0.01 0.02,0.01c0.02,0 0.04,0.01 0.05,0.02l0,0.01c0.02,0.02 0.05,0.01 0.06,0.03c0.02,0.01 0.03,0.02 0.04,0.02c0,0.02 0.01,0.02 0.02,0.02c0.02,0 0.03,0.01 0.04,0.02l0.01,0c0.01,0.03 0.05,0.02 0.06,0.04l0,0c0.02,0.02 0.05,0.01 0.06,0.04l0,0c0.02,0 0.03,0.01 0.04,0.02l0.01,0.01l0.01,0c0.02,0 0.03,0.01 0.05,0.03l0,0c0.02,0.02 0.05,0.01 0.06,0.03l0,0c0.01,0.01 0.03,0.02 0.04,0.03c0,0.01 0.01,0.01 0.02,0.01c0.02,0 0.03,0.01 0.04,0.02l0.01,0.01c0.01,0.02 0.04,0.01 0.06,0.03c0.01,0.01 0.02,0.02 0.03,0.03c0.01,0.01 0.02,0.01 0.03,0.01c0.01,0 0.03,0.01 0.04,0.02l0,0.01c0.02,0.02 0.05,0.01 0.06,0.03l0.01,0c0.01,0.02 0.05,0.01 0.06,0.04l0,0c0.01,0 0.02,0.01 0.03,0.02c0.01,0.01 0.01,0.01 0.02,0.01c0.02,0 0.04,0.01 0.05,0.03l0,0c0.02,0.02 0.05,0.01 0.06,0.03c0.02,0.01 0.03,0.02 0.04,0.03c0,0.01 0.01,0.01 0.02,0.01c0.02,0 0.03,0.01 0.05,0.03l0,0c0.01,0.02 0.05,0.01 0.06,0.03l0,0c0.02,0.02 0.05,0.01 0.06,0.04l0,0c0.02,0.01 0.03,0.01 0.04,0.02l0.01,0.01c0.01,0.02 0.04,0.01 0.06,0.03l0,0c0.02,0.02 0.05,0.01 0.06,0.04l0,0c0.01,0 0.03,0.01 0.04,0.02c0,0.01 0.01,0.01 0.02,0.01c0.02,0 0.03,0.01 0.04,0.03l0.01,0c0.01,0.02 0.04,0.01 0.06,0.03c0.01,0.01 0.02,0.02 0.03,0.03c0.01,0.01 0.02,0.01 0.03,0.01c0.01,0 0.03,0.02 0.04,0.03l0,0c0.02,0.02 0.05,0.01 0.06,0.03l0.01,0c0.01,0.02 0.05,0.01 0.06,0.04l0,0c0.01,0.01 0.02,0.01 0.03,0.02l0.01,0.01l0.01,0c0.02,0 0.04,0.02 0.05,0.03l0,0c0.02,0.02 0.05,0.01 0.06,0.04l0,0c0.02,0.01 0.03,0.01 0.04,0.02c0,0.01 0.01,0.02 0.02,0.01c0.02,0 0.03,0.02 0.05,0.03l0,0c0.01,0.02 0.05,0.01 0.06,0.04c0.01,0.01 0.02,0.01 0.04,0.02c0,0.01 0.01,0.02 0.02,0.01c0.02,0.01 0.03,0.02 0.04,0.03l0.01,0c0.01,0.02 0.04,0.01 0.06,0.04l0,0c0.02,0.01 0.05,0.01 0.06,0.03l0,0c0.01,0.01 0.03,0.02 0.04,0.03l0.01,0.01l0.01,0c0.02,0 0.03,0.01 0.04,0.02l0.01,0c0.01,0.02 0.04,0.02 0.06,0.04c0.01,0.01 0.02,0.02 0.03,0.02c0.01,0.02 0.02,0.02 0.03,0.02c0.01,0 0.03,0.01 0.04,0.02l0,0c0.02,0.02 0.05,0.02 0.07,0.04l0,0c0.01,0.01 0.02,0.01 0.03,0.02c0.01,0.01 0.01,0.02 0.03,0.01c0.01,0.01 0.02,0.02 0.04,0.03l0,0c0.02,0.02 0.05,0.02 0.06,0.04l0,0c0.02,0.02 0.05,0.01 0.07,0.03l0,0c0.01,0.01 0.02,0.02 0.03,0.03c0.01,0.01 0.01,0.01 0.02,0.01c0.02,0 0.03,0.01 0.05,0.02l0,0.01c0.02,0.02 0.05,0.01 0.06,0.03c0.01,0.01 0.02,0.02 0.04,0.02c0,0.02 0.01,0.02 0.02,0.02c0.02,0 0.03,0.01 0.04,0.02l0.01,0c0.01,0.03 0.04,0.02 0.06,0.04l0,0c0.02,0.02 0.05,0.01 0.06,0.04l0,0c0.01,0 0.03,0.01 0.04,0.02l0,0.01l0.02,0c0.02,0 0.03,0.01 0.04,0.03l0.01,0c0.01,0.02 0.04,0.01 0.06,0.03l0,0c0.01,0.01 0.02,0.02 0.03,0.03c0.01,0.01 0.01,0.01 0.02,0.01c0.02,0 0.04,0.01 0.05,0.03l0,0c0.02,0.02 0.05,0.01 0.06,0.03c0.02,0.01 0.03,0.02 0.04,0.03c0,0.01 0.01,0.01 0.02,0.01c0.02,0 0.03,0.01 0.05,0.02l0,0.01c0.01,0.02 0.05,0.01 0.06,0.03l0,0c0.02,0.02 0.05,0.01 0.06,0.04l0,0c0.02,0 0.03,0.01 0.04,0.02l0.01,0.01l0.01,0c0.02,0 0.03,0.01 0.05,0.03l0,0c0.02,0.02 0.05,0.01 0.06,0.04c0.01,0 0.03,0.01 0.04,0.02c0,0.01 0.01,0.01 0.02,0.01c0.02,0 0.03,0.01 0.04,0.03l0.01,0c0.01,0.02 0.04,0.01 0.06,0.03l0,0c0.02,0.02 0.05,0.01 0.06,0.04l0,0c0.02,0.01 0.03,0.01 0.04,0.02l0.01,0.01c0.01,0.02 0.04,0.01 0.06,0.03l0,0c0.01,0.02 0.05,0.01 0.06,0.04l0,0c0.01,0.01 0.02,0.01 0.04,0.02c0,0.01 0.01,0.02 0.02,0.01c0.02,0 0.03,0.02 0.04,0.03l0,0c0.02,0.02 0.05,0.01 0.07,0.04c0.01,0 0.02,0.01 0.03,0.02c0.01,0.01 0.01,0.01 0.02,0.01c0.02,0 0.03,0.02 0.05,0.03l0,0c0.02,0.02 0.05,0.01 0.06,0.03l0,0c0.01,0.01 0.02,0.02 0.04,0.03c0,0.01 0.01,0.01 0.02,0.01c0.02,0 0.03,0.02 0.04,0.03l0,0c0.01,0.01 0.02,0.02 0.03,0.02c0.01,0.02 0.02,0.02 0.03,0.02c0.02,0 0.03,0.01 0.04,0.03l0,0c0.01,0.01 0.02,0.02 0.03,0.03l0.01,0c0.01,0.01 0.02,0.02 0.03,0.02l0.01,0.01c0.01,0.03 0.04,0.01 0.05,0.04l0,0c0.02,0 0.03,0.02 0.03,0.03l0,0c0.02,0.01 0.03,0.02 0.04,0.04l0,0c0.01,0 0.02,0.01 0.03,0.03l0,0c0.02,0 0.03,0.02 0.03,0.03l0,0c0.02,0.01 0.03,0.02 0.03,0.04l0,0c0.03,0 0.02,0.04 0.05,0.05l0,0.01c0.01,0.01 0.02,0.02 0.03,0.03l0,0c0.01,0.01 0.02,0.02 0.03,0.04l0,0c0.02,0.01 0.01,0.04 0.03,0.06l0.01,0c0.01,0.01 0.02,0.02 0.02,0.04l0,0c0.03,0.01 0.02,0.04 0.04,0.06c0.02,0.02 0.01,0.05 0.03,0.07c0.02,0.02 0.02,0.05 0.03,0.07l0,-0.01c0.03,0.03 0.03,0.06 0.04,0.08l-0.01,0.01l0.01,0.01c0.02,0.03 0.02,0.05 0.03,0.08c-0.01,0.01 0,0.02 0.01,0.02c0.02,0.03 0,0.08 0.02,0.11c0,0.01 0,0.02 0.01,0.03c0.03,0.05 0,0.12 0.03,0.17c0,0.09 0,0.18 0,0.27c-0.04,0.07 0,0.15 -0.03,0.22c-0.01,0 -0.01,0.01 -0.01,0.02c-0.02,0.03 0,0.08 -0.03,0.11c-0.01,0 -0.01,0.01 0,0.02c-0.01,0.03 -0.01,0.06 -0.03,0.08c-0.01,0 -0.01,0.01 0,0.02c-0.02,0.03 -0.01,0.06 -0.03,0.08c-0.02,0.02 -0.02,0.05 -0.03,0.06l-0.01,0.01c-0.02,0.01 -0.01,0.04 -0.03,0.06l0,0c-0.02,0.02 -0.01,0.05 -0.03,0.07l0,0c-0.02,0.01 -0.01,0.05 -0.04,0.06l0,0c0,0.02 -0.02,0.02 -0.03,0.04l0,0c-0.02,0.01 -0.01,0.05 -0.04,0.06l0,0c0,0.01 -0.01,0.02 -0.03,0.03l0,0c-0.01,0.02 -0.02,0.03 -0.03,0.04l0,0c-0.05,0.08 -0.12,0.14 -0.19,0.2l-0.01,0c-0.01,0.01 -0.02,0.02 -0.03,0.03l0,0c-0.01,0.01 -0.02,0.03 -0.04,0.03l0,0c-0.02,0.03 -0.06,0.05 -0.09,0.07c-0.02,0.02 -0.05,0.01 -0.06,0.03l-0.01,0c-0.01,0.02 -0.02,0.02 -0.04,0.03l0.01,0.01l-0.01,-0.01c-0.01,0.03 -0.04,0.02 -0.06,0.03l0,0c-0.02,0.03 -0.05,0.02 -0.07,0.03l0,0c-0.02,0.05 -0.07,0.01 -0.09,0.04l-0.01,0c-0.02,0.02 -0.05,0.02 -0.08,0.03l-0.01,0l0,0.01c-0.03,0.03 -0.08,0 -0.11,0.03l0,0c-0.05,0.04 -0.12,0 -0.17,0.03c-0.02,-0.01 -0.04,-0.01 -0.05,0c-0.12,0.03 -0.23,0.03 -0.34,0l-0.01,-0.01l-0.01,0.01c-0.05,-0.03 -0.12,0.01 -0.17,-0.03l0,0c-0.04,-0.04 -0.1,0.01 -0.13,-0.04l0,0c-0.03,-0.02 -0.08,0.01 -0.1,-0.03l0,0c-0.03,-0.01 -0.05,-0.01 -0.07,-0.03l0,0c-0.02,-0.02 -0.05,-0.01 -0.07,-0.03l0,0c-0.02,-0.02 -0.05,-0.01 -0.06,-0.03l-0.01,-0.01c-0.01,-0.02 -0.05,-0.01 -0.06,-0.03l0,0c-0.02,-0.02 -0.05,-0.01 -0.07,-0.03l0,0c-0.02,-0.02 -0.05,-0.01 -0.06,-0.04l0,0c-0.04,-0.01 -0.07,-0.04 -0.1,-0.06l-0.01,0c-0.01,-0.02 -0.04,-0.01 -0.06,-0.04l0,0c-0.02,-0.01 -0.05,0 -0.06,-0.04l0,0c-0.02,0 -0.03,-0.01 -0.04,-0.02l0,0c-0.02,-0.02 -0.05,-0.01 -0.06,-0.04l0,0c-0.02,-0.01 -0.06,0 -0.07,-0.03l0,0l0,0c-0.01,-0.01 -0.02,-0.01 -0.04,-0.03l0,0c-0.01,-0.02 -0.05,-0.01 -0.06,-0.03l0,0c-0.02,-0.02 -0.05,-0.01 -0.06,-0.04c-0.02,-0.01 -0.03,-0.01 -0.04,-0.02l-0.01,-0.01c-0.01,-0.02 -0.04,-0.01 -0.06,-0.03l0,0c-0.02,-0.02 -0.05,-0.01 -0.06,-0.04l0,0c-0.04,-0.01 -0.07,-0.04 -0.1,-0.06l-0.01,0c-0.01,-0.02 -0.04,-0.01 -0.06,-0.04l0,0c-0.02,-0.01 -0.05,0 -0.06,-0.03l-0.01,0l0.01,-0.01c-0.02,0 -0.03,-0.01 -0.04,-0.02l0,0c-0.02,-0.02 -0.05,-0.01 -0.06,-0.04l-0.01,0c-0.01,-0.01 -0.05,0 -0.06,-0.03l0,0c-0.04,-0.02 -0.07,-0.04 -0.1,-0.06l0,0c-0.02,-0.02 -0.05,-0.01 -0.06,-0.04l0,0c-0.02,-0.01 -0.06,0 -0.07,-0.04l0,0c-0.01,0 -0.03,-0.01 -0.04,-0.02l0,0c-0.02,-0.02 -0.05,-0.01 -0.06,-0.04l0,0c-0.02,-0.01 -0.05,0 -0.06,-0.03l-0.01,0l0.01,0c-0.02,-0.01 -0.03,-0.02 -0.04,-0.03l-0.01,0c-0.01,-0.02 -0.04,-0.01 -0.06,-0.04l0,0c-0.02,-0.01 -0.05,0 -0.06,-0.03l0,0c-0.04,-0.02 -0.07,-0.04 -0.1,-0.06l-0.01,0c-0.01,-0.02 -0.05,-0.01 -0.06,-0.04l0,0c-0.02,-0.02 -0.05,-0.01 -0.06,-0.04l-0.01,0.01l0.01,-0.01c-0.02,0 -0.03,-0.01 -0.04,-0.02l0,0c-0.02,-0.02 -0.05,-0.02 -0.06,-0.04l-0.01,0c-0.01,-0.01 -0.05,-0.01 -0.06,-0.04c-0.01,0 -0.02,-0.01 -0.04,-0.02l0,0c-0.02,-0.02 -0.05,-0.01 -0.06,-0.04l0,0c-0.02,-0.01 -0.05,-0.01 -0.06,-0.03l0,0c-0.04,-0.02 -0.07,-0.04 -0.11,-0.06l0,-0.01c-0.02,-0.01 -0.05,-0.01 -0.06,-0.03l0,0c-0.02,-0.02 -0.05,-0.01 -0.06,-0.04l-0.01,0.01l0.01,-0.01c-0.02,0 -0.03,-0.01 -0.04,-0.02l-0.01,0c-0.01,-0.02 -0.05,-0.02 -0.06,-0.04l0,0c-0.02,-0.02 -0.05,-0.01 -0.06,-0.04c-0.02,0 -0.03,-0.01 -0.04,-0.02l-0.01,0c-0.01,-0.02 -0.04,-0.02 -0.06,-0.04l0,0c-0.01,-0.01 -0.05,-0.01 -0.06,-0.03l0,0c-0.04,-0.02 -0.07,-0.04 -0.1,-0.06l0,-0.01c-0.02,-0.01 -0.05,-0.01 -0.07,-0.03l0,0c-0.02,-0.02 -0.05,-0.01 -0.06,-0.04l0,0.01l0,-0.01c-0.01,0 -0.03,-0.01 -0.04,-0.02l0,0c-0.02,-0.02 -0.05,-0.02 -0.06,-0.04l0,0c-0.02,-0.02 -0.06,-0.01 -0.07,-0.04l0,0c-0.04,-0.01 -0.07,-0.03 -0.1,-0.06l0,0c-0.02,-0.02 -0.05,-0.01 -0.06,-0.03l0,0c-0.02,-0.02 -0.06,-0.01 -0.07,-0.04l0,0.01l0,-0.01c-0.01,0 -0.03,-0.01 -0.04,-0.02l0,-0.01c-0.01,-0.02 -0.05,-0.01 -0.06,-0.03l0,0c-0.02,-0.02 -0.05,-0.01 -0.06,-0.04l-0.01,0.01l0.01,-0.01c-0.02,0 -0.03,-0.01 -0.04,-0.02l-0.01,0c-0.01,-0.03 -0.04,-0.02 -0.06,-0.04l0,0c-0.02,-0.02 -0.05,-0.01 -0.06,-0.04l0,0c-0.04,-0.01 -0.07,-0.03 -0.1,-0.06l-0.01,0c-0.01,-0.02 -0.05,-0.01 -0.06,-0.03l0,0c-0.02,-0.02 -0.05,-0.01 -0.06,-0.04l-0.01,0.01l0.01,-0.01c-0.02,-0.01 -0.03,-0.01 -0.04,-0.03l0,0c-0.02,-0.02 -0.05,-0.01 -0.07,-0.03l0,0c-0.02,-0.02 -0.05,-0.01 -0.06,-0.04c-0.01,0 -0.03,-0.01 -0.04,-0.02l0,-0.01c-0.02,-0.02 -0.05,-0.01 -0.06,-0.03l0,0c-0.02,-0.02 -0.05,-0.01 -0.07,-0.04l0,0c-0.02,-0.01 -0.05,0 -0.06,-0.03l0,-0.01c-0.02,0 -0.03,-0.01 -0.04,-0.02l0,0c-0.02,-0.02 -0.05,-0.01 -0.06,-0.04l0,0c-0.02,-0.01 -0.06,0 -0.07,-0.03l0,0.01l0,-0.01c-0.01,-0.01 -0.02,-0.01 -0.03,-0.03l-0.01,0c-0.01,-0.02 -0.05,-0.01 -0.06,-0.03l0,0c-0.02,-0.02 -0.05,-0.01 -0.06,-0.04l0,0c-0.04,-0.01 -0.07,-0.04 -0.11,-0.06l0,0c-0.02,-0.02 -0.05,-0.01 -0.06,-0.04l0,0c-0.02,-0.01 -0.05,0 -0.06,-0.03l-0.01,0l0.01,-0.01c-0.02,0 -0.03,-0.01 -0.04,-0.02l-0.01,0c-0.01,-0.02 -0.04,-0.01 -0.06,-0.04l0,0c-0.02,-0.01 -0.05,0 -0.06,-0.03c-0.01,-0.01 -0.03,-0.01 -0.04,-0.03l0,0c-0.02,-0.02 -0.05,-0.01 -0.06,-0.03l-0.01,0c-0.01,-0.02 -0.05,-0.01 -0.06,-0.04l0,0c-0.04,-0.02 -0.07,-0.04 -0.1,-0.06l0.01,-0.01c-0.02,-0.02 -0.05,-0.01 -0.07,-0.03l0,0c-0.02,-0.02 -0.05,-0.01 -0.06,-0.04l-0.01,0.01l0.01,-0.01c-0.02,0 -0.03,-0.01 -0.04,-0.02l0,0c-0.02,-0.03 -0.05,-0.02 -0.06,-0.04l0,0c-0.02,-0.02 -0.06,-0.01 -0.07,-0.04l0,0c-0.04,-0.01 -0.07,-0.03 -0.1,-0.06l0,0c-0.02,-0.02 -0.05,-0.01 -0.06,-0.04l0,0c-0.02,-0.01 -0.06,0 -0.07,-0.03l0,0c-0.01,-0.01 -0.03,-0.01 -0.04,-0.03l0,0c-0.02,-0.02 -0.05,-0.01 -0.06,-0.03l0,0c-0.02,-0.02 -0.05,-0.01 -0.06,-0.04l-0.01,0.01l0.01,-0.01c-0.02,0 -0.03,-0.01 -0.04,-0.02l-0.01,-0.01c-0.01,-0.02 -0.04,-0.01 -0.06,-0.03l0,0c-0.02,-0.02 -0.05,-0.01 -0.06,-0.04l0,0c-0.04,-0.01 -0.07,-0.04 -0.1,-0.06l-0.01,0c-0.01,-0.02 -0.05,-0.01 -0.06,-0.04l0,0c-0.02,-0.01 -0.05,0 -0.06,-0.03l-0.01,0l0.01,0c-0.02,-0.01 -0.03,-0.02 -0.04,-0.03l-0.01,0c-0.01,-0.02 -0.04,-0.01 -0.06,-0.04l0,0c-0.02,-0.01 -0.05,0 -0.06,-0.03c-0.01,-0.01 -0.03,-0.02 -0.04,-0.03l0,0c-0.02,-0.02 -0.05,-0.01 -0.06,-0.03l0,0c-0.02,-0.02 -0.05,-0.01 -0.07,-0.04l0,0c-0.02,-0.01 -0.05,0 -0.06,-0.04l0,0c-0.02,0 -0.03,-0.01 -0.04,-0.02l0,0c-0.02,-0.02 -0.05,-0.01 -0.06,-0.04l0,0c-0.02,-0.01 -0.06,0 -0.07,-0.03l0,0l0,0c-0.01,-0.01 -0.02,-0.02 -0.04,-0.03l0,0c-0.02,-0.02 -0.05,-0.01 -0.06,-0.03l0,-0.01c-0.02,-0.01 -0.05,0 -0.06,-0.03c-0.02,-0.01 -0.03,-0.02 -0.04,-0.03l-0.01,0c-0.01,-0.02 -0.04,-0.01 -0.05,-0.04c-0.02,0 -0.03,-0.01 -0.04,-0.02l-0.01,-0.01c-0.01,-0.02 -0.04,-0.01 -0.05,-0.04l-0.01,0.01l0.01,-0.01c-0.02,0 -0.03,-0.01 -0.04,-0.02c-0.01,-0.01 -0.02,-0.02 -0.03,-0.03l-0.01,-0.01c-0.04,-0.03 -0.09,-0.06 -0.12,-0.1c-0.05,-0.05 -0.1,-0.1 -0.14,-0.16l0,0c-0.01,-0.01 -0.02,-0.02 -0.03,-0.04l0,0c-0.03,-0.02 -0.05,-0.06 -0.07,-0.1l0.01,0c-0.03,-0.01 -0.02,-0.04 -0.04,-0.06l0,0c-0.02,-0.02 -0.01,-0.05 -0.04,-0.06l0,-0.01c-0.01,-0.01 -0.01,-0.04 -0.03,-0.06l0,0c-0.02,-0.02 -0.01,-0.05 -0.03,-0.07l0,0c-0.03,-0.02 -0.01,-0.07 -0.03,-0.1l0,0c-0.03,-0.03 -0.01,-0.07 -0.03,-0.11l0,-0.01l-0.01,-0.01c-0.03,-0.04 0,-0.1 -0.03,-0.14c0.01,-0.01 0.01,-0.02 0,-0.03c-0.03,-0.17 -0.02,-0.35 0,-0.53z" fill="#eb4034" id="svg_2"/>
  <path d="m33.26,0.01c0.02,0 0.05,0 0.07,0c0.03,0 0.06,0 0.09,0l0.01,0c0.03,0.04 0.09,0 0.13,0.03l0,0c0.03,0.03 0.07,0.01 0.1,0.04l0,0c0.03,0.03 0.07,0 0.1,0.03c0.02,0.02 0.05,0.01 0.06,0.04c0.02,0.01 0.05,0.01 0.07,0.03c0.02,0.02 0.05,0.01 0.06,0.04l0.01,-0.01l-0.01,0.01c0.02,0 0.03,0.01 0.04,0.02l0,0c0.02,0.02 0.05,0.01 0.06,0.04l0,0c0.02,0 0.03,0.02 0.04,0.03c0.01,0.01 0.02,0.02 0.03,0.03l0.01,0c0.02,0.03 0.07,0.04 0.08,0.08l0.01,-0.01l-0.01,0.01c0.02,0 0.04,0.01 0.04,0.03l0,-0.01l0,0.01c0.02,0 0.03,0.01 0.03,0.03l0.01,0l-0.01,0c0.02,0 0.03,0.01 0.03,0.04l0.01,-0.01l-0.01,0.01c0.04,0.01 0.05,0.06 0.08,0.09l0,0c0.01,0.01 0.02,0.02 0.03,0.03l0,0c0.03,0.03 0.05,0.07 0.06,0.1l0,0c0.03,0.01 0.02,0.05 0.04,0.06l0,0.01c0.02,0.01 0.01,0.04 0.03,0.06l0,0c0.02,0.02 0.02,0.05 0.04,0.07l0,0c0.02,0.02 0.01,0.05 0.03,0.07l0,-0.01c0.03,0.03 0,0.08 0.03,0.1l0,0c0.03,0.03 0.01,0.08 0.03,0.11l0,0.02l0.01,0.01c0.03,0.05 -0.01,0.11 0.03,0.17c-0.01,0.01 -0.01,0.02 0,0.02c0.03,0.06 0.01,0.12 0.01,0.18c0,2.48 0,4.96 0,7.43c0,0.06 0.02,0.12 -0.01,0.18l0,0c-0.05,0.06 0.01,0.14 -0.04,0.2l0,-0.01c-0.02,0.03 0,0.08 -0.03,0.11l0,0c-0.03,0.02 0,0.07 -0.03,0.1l0,-0.01c-0.02,0.02 -0.01,0.05 -0.03,0.07l0,0c-0.04,0.02 0,0.08 -0.05,0.09l0,0c0.01,0.02 -0.01,0.03 -0.02,0.05l0,0c-0.02,0.01 -0.01,0.05 -0.04,0.06l0,0c-0.02,0.03 -0.03,0.07 -0.06,0.1l0,0c-0.03,0.05 -0.06,0.09 -0.11,0.13l0.01,0l-0.01,-0.01c0,0.03 -0.01,0.04 -0.03,0.04l0.01,0.01l-0.01,-0.01c0,0.02 -0.01,0.03 -0.03,0.03l0,0.01l0,-0.01c-0.01,0.02 -0.02,0.03 -0.04,0.04l0.01,0l-0.01,-0.01c-0.03,0.05 -0.08,0.08 -0.12,0.11l0,0c-0.01,0.01 -0.02,0.03 -0.04,0.03l0.01,0l-0.01,0c-0.02,0.03 -0.06,0.05 -0.1,0.06l0.01,0.01l-0.01,-0.01c-0.01,0.03 -0.04,0.03 -0.06,0.04c-0.02,0.02 -0.05,0.02 -0.07,0.04l0,0c-0.02,0.02 -0.04,0.01 -0.07,0.03c-0.42,0.18 -0.85,0.18 -1.28,0c-0.02,-0.02 -0.05,-0.01 -0.07,-0.03l0,-0.01c-0.02,-0.01 -0.05,-0.01 -0.06,-0.03c-0.02,-0.02 -0.06,-0.01 -0.07,-0.04c-0.04,-0.01 -0.07,-0.03 -0.1,-0.06l0,0c-0.01,0 -0.02,-0.02 -0.03,-0.03l0,0c-0.03,-0.03 -0.08,-0.03 -0.1,-0.07l-0.01,0l0.01,0c-0.02,0 -0.03,-0.02 -0.03,-0.04l0,0.01c-0.02,-0.01 -0.03,-0.02 -0.03,-0.04l0,0c-0.02,0 -0.03,-0.01 -0.04,-0.03l0,0l0,0c-0.02,0 -0.03,-0.01 -0.03,-0.04l-0.01,0.01l0.01,-0.01c-0.04,-0.03 -0.08,-0.07 -0.1,-0.12l0,0c-0.03,-0.03 -0.05,-0.07 -0.07,-0.1l0,0c-0.03,-0.03 -0.05,-0.06 -0.06,-0.11l0,0c-0.05,-0.01 -0.01,-0.07 -0.04,-0.09l0,0c-0.02,-0.02 -0.02,-0.05 -0.03,-0.07l0,0c-0.04,-0.02 -0.01,-0.07 -0.04,-0.1l0,0.01c-0.03,-0.03 -0.01,-0.08 -0.03,-0.11l0,0c-0.04,-0.05 0,-0.12 -0.03,-0.18l0,-0.01l0,0c-0.04,-0.06 -0.02,-0.12 -0.02,-0.18c0,-2.49 0,-4.98 0,-7.46c0,-0.06 -0.02,-0.13 0.02,-0.18l0,-0.01l0,-0.01c0.03,-0.05 -0.01,-0.13 0.03,-0.18l0,0c0.02,-0.03 0,-0.07 0.03,-0.1l0,0c0.03,-0.03 0,-0.07 0.04,-0.1l0,0c0.01,-0.02 0.01,-0.05 0.03,-0.07l0,0c0.02,-0.01 0.01,-0.04 0.03,-0.06l0.01,-0.01l0,-0.01c0,-0.02 0.01,-0.04 0.02,-0.05l0,0c0.02,-0.02 0.02,-0.05 0.04,-0.06l0,0c0.02,-0.04 0.04,-0.07 0.07,-0.1l0,0c0,-0.02 0.01,-0.03 0.03,-0.04l0,0c0.02,-0.03 0.03,-0.07 0.07,-0.09l-0.01,-0.01l0.01,0.01c0,-0.02 0.01,-0.03 0.03,-0.03l0,0c0,-0.02 0.02,-0.03 0.04,-0.04l-0.01,0c0.01,-0.02 0.02,-0.03 0.04,-0.03l0,0c0,-0.02 0.01,-0.03 0.03,-0.03l-0.01,-0.01l0.01,0.01c0.02,-0.04 0.06,-0.05 0.09,-0.07l0,-0.01c0.01,-0.01 0.02,-0.02 0.04,-0.02l0,0c0.01,-0.03 0.05,-0.02 0.06,-0.04l0,0c0.01,-0.01 0.02,-0.03 0.04,-0.03l0,-0.01l0,0.01c0.01,-0.03 0.04,-0.02 0.06,-0.04c0.02,-0.02 0.05,-0.01 0.07,-0.03l0,0c0.02,-0.02 0.05,-0.02 0.07,-0.03c0.02,-0.04 0.07,-0.01 0.09,-0.04l0,0c0.03,-0.03 0.07,0 0.1,-0.03l0,0c0.04,-0.04 0.1,0 0.13,-0.03l0.01,0c0.03,-0.01 0.06,-0.01 0.09,-0.01c0.02,0 0.05,0 0.07,0c0.1,0.01 0.2,0.01 0.3,0.01z" fill="#eb4034" id="svg_3"/>
  <path d="m7.59,41.2c-0.02,0.02 -0.04,0.03 -0.07,0.02c0.02,-0.03 0.04,-0.03 0.07,-0.02z" fill="#eb4034" id="svg_4"/>
  <path d="m56.09,22.14c-0.89,-0.01 -1.67,-0.69 -1.68,-1.68c0,-0.56 0.25,-1.02 0.7,-1.36c0.12,-0.08 0.24,-0.16 0.36,-0.23c2.36,-1.38 4.71,-2.76 7.06,-4.14c0.25,-0.15 0.52,-0.25 0.81,-0.29c0.88,-0.11 1.74,0.57 1.83,1.46c0.07,0.68 -0.18,1.22 -0.75,1.61c-0.11,0.07 -0.23,0.15 -0.35,0.22c-2.27,1.33 -4.55,2.67 -6.83,4c-0.21,0.13 -0.42,0.25 -0.65,0.33c-0.16,0.05 -0.33,0.08 -0.5,0.08z" fill="#eb4034" id="svg_5"/>
  <path d="m65.59,44.47c0,0.15 0.02,0.29 -0.01,0.44c-0.15,0.63 -0.73,1.14 -1.36,1.22c-0.26,0.04 -0.51,0.01 -0.75,-0.05c-2.71,-0.7 -5.42,-1.41 -8.13,-2.11c-0.15,-0.04 -0.29,-0.09 -0.43,-0.16c-0.66,-0.31 -1.05,-1.06 -0.93,-1.75c0.13,-0.75 0.7,-1.31 1.44,-1.41c0.26,-0.03 0.51,0 0.75,0.07c2.38,0.61 4.75,1.23 7.12,1.84c0.32,0.09 0.64,0.17 0.96,0.25c0.07,0.02 0.15,0.05 0.22,0.07c0.34,0.12 0.63,0.32 0.85,0.61c0.21,0.29 0.33,0.61 0.27,0.98z" fill="#eb4034" id="svg_6"/>
  <path d="m19.42,18.07l-0.01,0l0.01,0l0,0z" fill="#eb4034" id="svg_7"/>
  <path d="m44.49,16.52l0,-0.01l-0.01,0.01l0.01,0z" fill="#eb4034" id="svg_8"/>
  <path d="m20.38,17.25l-0.01,-0.01l0.01,0.01c0,0 0,0 0,0z" fill="#eb4034" id="svg_9"/>
  <path d="m20.54,17.11l0,0l0,0l0,0l0,0z" fill="#eb4034" id="svg_10"/>
  <path d="m21.07,16.71l0,0l0,0.01l0,0l0,-0.01z" fill="#eb4034" id="svg_11"/>
  <path d="m21.31,16.55l-0.01,-0.01l0,0.01l0.01,0l0,0z" fill="#eb4034" id="svg_12"/>
  <path d="m19.75,17.78l-0.01,-0.01l0.01,0.01c0,0 0,0 0,0z" fill="#eb4034" id="svg_13"/>
  <path d="m17.07,42.94l-0.01,0.01l0.01,-0.01c0,0 0,0 0,0z" fill="#eb4034" id="svg_14"/>
  <path d="m18.39,19.1l0,0l0,0l0,0l0,0z" fill="#eb4034" id="svg_15"/>
  <path d="m17.93,44.03l-0.01,0.01l0.01,0c0,0 0,0 0,-0.01z" fill="#eb4034" id="svg_16"/>
  <path d="m18.09,44.23l0,0.01l0,-0.01c0,0 0,0 0,0z" fill="#eb4034" id="svg_17"/>
  <path d="m17.63,43.67l-0.01,0.01l0.01,-0.01c0,0 0,0 0,0z" fill="#eb4034" id="svg_18"/>
  <path d="m17.76,43.84l0,0l0,0c0,0 0,0 0,0z" fill="#eb4034" id="svg_19"/>
  <path d="m52.72,31.17c-0.04,-0.71 -0.12,-1.42 -0.25,-2.13c-0.32,-1.61 -0.83,-3.16 -1.52,-4.65c-1.18,-2.55 -2.79,-4.78 -4.9,-6.63c-0.22,-0.2 -0.45,-0.38 -0.67,-0.57c-0.01,-0.01 -0.02,-0.02 -0.03,-0.03c-0.01,0 -0.02,-0.01 -0.03,-0.02l0,0c-0.01,-0.01 -0.02,-0.02 -0.04,-0.03c0,-0.01 -0.01,-0.03 -0.03,-0.03c-0.01,-0.03 -0.05,-0.02 -0.06,-0.04l0,0c-0.01,-0.01 -0.03,-0.02 -0.04,-0.03l0,0c-0.01,-0.01 -0.02,-0.03 -0.03,-0.03c-0.01,-0.02 -0.03,-0.03 -0.05,-0.03c-0.01,0 -0.01,0 -0.02,-0.02c-0.01,0 -0.02,-0.01 -0.03,-0.02l0,0c-0.01,-0.01 -0.02,-0.02 -0.04,-0.03l0.01,0c-0.01,-0.02 -0.03,-0.03 -0.05,-0.03c-0.01,0 -0.02,0 -0.02,-0.01c-0.01,-0.01 -0.02,-0.02 -0.03,-0.03l0,0c-0.01,-0.01 -0.02,-0.02 -0.04,-0.03c-0.01,-0.02 -0.04,-0.01 -0.05,-0.04l-0.01,0c-0.01,-0.01 -0.02,-0.02 -0.03,-0.03l-0.01,0c-0.01,-0.01 -0.02,-0.02 -0.03,-0.03c-0.01,-0.02 -0.05,-0.01 -0.06,-0.04l0,0c-0.02,-0.01 -0.03,-0.02 -0.04,-0.03l0,0c-0.01,-0.01 -0.02,-0.03 -0.05,-0.03l-0.01,0l0,-0.01c-0.02,-0.01 -0.03,-0.01 -0.04,-0.02l0,0c-0.01,-0.02 -0.02,-0.03 -0.04,-0.03l0,0c0,0 0,0 0,0c0,-0.03 -0.04,-0.02 -0.05,-0.04l-0.01,0c-0.01,-0.01 -0.02,-0.02 -0.03,-0.03c-0.01,-0.02 -0.05,-0.02 -0.06,-0.04l0,0c-0.02,-0.01 -0.03,-0.02 -0.04,-0.03c-0.01,-0.02 -0.05,-0.01 -0.06,-0.03l0,-0.01c-0.01,-0.01 -0.03,-0.02 -0.04,-0.02c-0.01,-0.03 -0.04,-0.02 -0.06,-0.04l0,0c-0.01,-0.01 -0.03,-0.02 -0.04,-0.03c-0.01,-0.02 -0.04,-0.02 -0.06,-0.04l0,0c-0.01,-0.01 -0.03,-0.02 -0.04,-0.02c-0.01,-0.03 -0.04,-0.02 -0.06,-0.04l0,0c-0.01,-0.02 -0.03,-0.03 -0.05,-0.03c-0.01,0 -0.01,0 -0.02,-0.01c-0.01,-0.01 -0.02,-0.02 -0.03,-0.03l0,0c-0.01,-0.01 -0.03,-0.03 -0.05,-0.03l-0.01,0l-0.01,-0.01c-0.01,-0.01 -0.02,-0.01 -0.03,-0.02c-0.02,-0.03 -0.05,-0.02 -0.06,-0.04l-0.01,0c-0.01,-0.01 -0.02,-0.02 -0.04,-0.03c-0.01,0.01 -0.02,0 -0.02,-0.01c-0.01,-0.01 -0.03,-0.01 -0.04,-0.02c-0.01,-0.03 -0.04,-0.02 -0.06,-0.04l0,0c-0.02,-0.01 -0.03,-0.02 -0.05,-0.03c-0.01,0.01 -0.01,0 -0.02,-0.01c-0.01,0 -0.02,-0.01 -0.03,-0.02c-0.02,-0.02 -0.05,-0.02 -0.06,-0.04l-0.01,0c-0.01,-0.01 -0.02,-0.02 -0.04,-0.03c-0.01,0.01 -0.02,0.01 -0.02,-0.01c-0.02,0 -0.03,-0.01 -0.04,-0.02c-0.01,-0.02 -0.05,-0.02 -0.06,-0.03l-0.01,-0.01c-0.01,-0.02 -0.04,-0.01 -0.06,-0.03l0,0c-0.01,-0.01 -0.03,-0.02 -0.04,-0.03c-0.01,0.01 -0.02,0 -0.03,-0.01c-0.01,-0.01 -0.02,-0.01 -0.03,-0.02c-0.02,-0.03 -0.05,-0.02 -0.07,-0.04l0,0c-0.01,-0.02 -0.04,-0.01 -0.06,-0.03l0,0c-0.02,-0.02 -0.05,-0.01 -0.06,-0.03l-0.01,-0.01c-0.01,-0.01 -0.03,-0.02 -0.04,-0.02c-0.01,0 -0.02,0 -0.02,-0.01c-0.02,-0.01 -0.03,-0.02 -0.05,-0.03c-0.01,0.01 -0.02,0.01 -0.02,-0.01c-0.01,-0.01 -0.03,-0.01 -0.04,-0.02c-0.01,0 -0.02,0 -0.03,-0.01c-0.01,-0.01 -0.02,-0.01 -0.03,-0.02c-0.02,-0.03 -0.05,-0.02 -0.07,-0.04l0,0c-0.01,-0.02 -0.04,-0.01 -0.06,-0.03l0,0c-0.02,-0.02 -0.05,-0.02 -0.07,-0.03l0,0c-0.02,-0.03 -0.05,-0.02 -0.06,-0.04l-0.01,0c-0.01,-0.02 -0.04,-0.01 -0.06,-0.03l0,0c-0.02,-0.02 -0.05,-0.01 -0.07,-0.03l0,0c-0.02,-0.02 -0.05,-0.02 -0.06,-0.03l-0.01,-0.01c-0.01,-0.02 -0.04,-0.01 -0.06,-0.03l0,0c-0.02,-0.02 -0.05,-0.01 -0.07,-0.03c-0.02,-0.02 -0.05,-0.02 -0.07,-0.03c-0.01,0 -0.02,0 -0.03,-0.01c-0.01,-0.01 -0.02,-0.02 -0.04,-0.03c-0.01,0.01 -0.02,0.01 -0.02,0c-0.02,-0.01 -0.03,-0.03 -0.05,-0.03l-0.01,0l-0.01,-0.01c-0.02,-0.01 -0.05,0 -0.06,-0.02l-0.01,-0.01c-0.01,-0.01 -0.04,-0.01 -0.06,-0.03l0,0c-0.02,-0.02 -0.05,-0.01 -0.07,-0.03c-0.01,0 -0.02,0 -0.03,-0.01c-0.02,0 -0.03,-0.02 -0.04,-0.02c-0.01,0 -0.02,0 -0.03,-0.01c-0.02,-0.01 -0.04,-0.01 -0.06,-0.03l0,0c-0.02,-0.02 -0.05,-0.01 -0.07,-0.03l0,0c-0.02,-0.02 -0.05,-0.02 -0.07,-0.03c-0.01,0 -0.02,0 -0.03,-0.01c-0.02,-0.01 -0.05,-0.01 -0.06,-0.03l-0.01,0c-0.01,-0.02 -0.04,-0.01 -0.06,-0.03c-0.01,0 -0.02,0 -0.04,-0.01c-0.01,-0.01 -0.02,-0.02 -0.04,-0.02c-0.01,0.01 -0.02,0 -0.02,-0.01c-0.02,-0.01 -0.05,-0.01 -0.07,-0.02l0,-0.01c-0.02,-0.02 -0.05,-0.01 -0.07,-0.03c-0.01,0.01 -0.02,0.01 -0.03,0c-0.01,-0.02 -0.04,-0.01 -0.06,-0.03l0,0c-0.02,-0.02 -0.06,-0.02 -0.08,-0.03l-0.01,0l-0.01,-0.01c-0.02,-0.02 -0.05,-0.01 -0.07,-0.03c-0.01,0.01 -0.02,0.01 -0.03,-0.01c-0.02,-0.01 -0.05,0 -0.06,-0.02l-0.01,0c-0.02,-0.02 -0.05,-0.02 -0.07,-0.03c-0.01,0 -0.02,0 -0.03,-0.01c-0.02,-0.02 -0.04,-0.01 -0.07,-0.03c-0.01,0.01 -0.02,0.01 -0.02,0c-0.02,-0.02 -0.05,-0.01 -0.07,-0.03c-0.01,0 -0.02,-0.01 -0.03,-0.01c-0.02,-0.01 -0.05,-0.01 -0.07,-0.03l0,0c-0.02,-0.02 -0.05,-0.02 -0.08,-0.03l-0.01,0.01l-0.01,-0.01c-0.02,-0.02 -0.05,-0.02 -0.08,-0.03l-0.01,0l-0.01,0c-0.02,-0.02 -0.05,-0.02 -0.08,-0.03l-0.01,0l-0.01,-0.01c-0.02,-0.01 -0.05,-0.02 -0.08,-0.02l-0.01,0l-0.01,-0.01c-0.02,-0.02 -0.05,-0.02 -0.08,-0.03l-0.01,0.01l-0.01,-0.01c-0.02,-0.03 -0.07,0 -0.1,-0.03c-0.01,-0.01 -0.02,-0.01 -0.03,-0.01c-0.02,-0.01 -0.05,-0.01 -0.07,-0.03c-0.01,0 -0.02,0 -0.03,0c-0.02,-0.02 -0.05,-0.01 -0.07,-0.03c-0.01,0.01 -0.02,0.01 -0.03,0c-0.02,-0.02 -0.05,-0.02 -0.08,-0.03l-0.01,0l-0.01,0c-0.03,-0.03 -0.07,-0.01 -0.1,-0.03c-0.01,-0.01 -0.02,-0.01 -0.03,-0.01c-0.02,-0.02 -0.05,-0.02 -0.08,-0.03l-0.01,0.01l-0.01,-0.01c-0.03,-0.03 -0.07,-0.01 -0.1,-0.03c-0.01,0.01 -0.02,0 -0.03,-0.01c-0.03,-0.02 -0.07,0 -0.1,-0.03c-0.01,0 -0.02,0 -0.03,0c-0.03,-0.01 -0.06,-0.02 -0.08,-0.03c-0.02,0 -0.04,0 -0.06,-0.01c-0.02,-0.01 -0.05,-0.01 -0.07,-0.02c-0.02,0 -0.04,-0.01 -0.06,-0.01c-0.02,-0.01 -0.05,-0.01 -0.07,-0.02c-0.02,-0.01 -0.04,-0.01 -0.06,-0.01c-0.03,-0.01 -0.05,-0.02 -0.08,-0.03c-0.02,0 -0.04,0 -0.05,-0.01c-0.03,-0.02 -0.07,0.01 -0.1,-0.02c-0.01,0 -0.02,-0.01 -0.04,-0.01c-0.03,-0.02 -0.07,0 -0.1,-0.02c-0.01,0 -0.02,0 -0.03,-0.01c-0.03,-0.02 -0.08,-0.01 -0.11,-0.03c-0.02,0 -0.04,0 -0.05,0c-0.04,-0.02 -0.08,-0.01 -0.11,-0.03c-0.02,0 -0.04,0 -0.06,-0.01c-0.03,-0.02 -0.07,0 -0.11,-0.02c-0.02,-0.01 -0.04,-0.01 -0.05,-0.01c-0.04,-0.02 -0.08,-0.01 -0.11,-0.02c-0.02,-0.01 -0.04,-0.01 -0.06,-0.01c-0.04,-0.03 -0.09,0 -0.13,-0.03c-0.01,0 -0.03,0 -0.04,-0.01c-0.04,-0.02 -0.09,0 -0.14,-0.02c-0.02,0 -0.04,-0.01 -0.06,-0.01c-0.04,-0.02 -0.09,0 -0.14,-0.02c-0.02,-0.01 -0.03,-0.01 -0.05,-0.01c-0.05,-0.03 -0.11,0 -0.15,-0.03c-0.03,0.01 -0.06,0 -0.09,-0.01c-0.04,-0.02 -0.09,0 -0.14,-0.02c-0.03,0 -0.06,-0.01 -0.09,-0.01c-0.05,-0.02 -0.1,0 -0.15,-0.02c-0.03,0.01 -0.05,0 -0.08,-0.01c-0.06,-0.03 -0.12,0 -0.18,-0.03c-0.03,0.01 -0.06,0 -0.09,0c-0.06,-0.03 -0.14,0 -0.2,-0.03c-0.03,0.01 -0.06,0 -0.09,-0.01c-0.08,-0.03 -0.17,0.01 -0.25,-0.02c-0.04,0.01 -0.08,0 -0.12,-0.01c-0.09,-0.03 -0.18,0.01 -0.27,-0.03c-0.06,0.02 -0.11,0 -0.16,0c-0.11,-0.04 -0.23,0.01 -0.35,-0.03c-0.09,0.02 -0.19,0 -0.28,-0.01c-0.39,-0.02 -0.78,-0.01 -1.17,-0.01c-0.3,0 -0.61,-0.01 -0.92,0.01c-0.08,0.01 -0.16,0.02 -0.25,0.01c-0.13,0.04 -0.27,-0.01 -0.41,0.03c-0.05,0 -0.1,0.02 -0.15,0c-0.09,0.04 -0.19,0 -0.28,0.03c-0.04,0.01 -0.08,0.02 -0.12,0.01c-0.08,0.03 -0.17,-0.01 -0.24,0.02c-0.03,0.01 -0.06,0.02 -0.09,0.01c-0.07,0.03 -0.15,0 -0.21,0.02c-0.03,0.01 -0.06,0.01 -0.09,0.01c-0.06,0.03 -0.12,0 -0.18,0.03c-0.03,0 -0.06,0 -0.09,0.01c-0.05,0.03 -0.12,-0.01 -0.17,0.02c-0.02,0 -0.04,0.01 -0.06,0.01c-0.06,0.03 -0.12,0 -0.17,0.02c-0.02,0.01 -0.04,0.01 -0.06,0.01c-0.05,0.03 -0.1,0 -0.14,0.03c-0.02,0 -0.04,0 -0.07,0c-0.04,0.03 -0.09,0 -0.13,0.03c-0.02,0 -0.04,0.01 -0.06,0.01c-0.05,0.03 -0.1,0 -0.14,0.02c-0.02,0.01 -0.04,0.01 -0.06,0.01c-0.03,0.02 -0.07,0.01 -0.11,0.03c-0.02,0 -0.04,0 -0.06,0c-0.04,0.03 -0.09,0 -0.14,0.03c-0.01,0 -0.02,0.01 -0.03,0.01c-0.04,0.03 -0.09,0 -0.13,0.03c-0.01,0 -0.02,0 -0.03,0c-0.03,0.03 -0.07,0 -0.1,0.02c-0.02,0.01 -0.04,0.01 -0.06,0.01c-0.03,0.03 -0.08,0.01 -0.11,0.03c-0.02,0 -0.03,0 -0.05,0.01c-0.03,0.01 -0.05,0.01 -0.08,0.02c-0.02,0 -0.04,0.01 -0.06,0.01c-0.03,0.02 -0.08,0 -0.11,0.03c-0.01,0 -0.02,0 -0.03,0c-0.03,0.03 -0.07,0.01 -0.1,0.03c-0.01,0 -0.02,0 -0.03,0c-0.03,0.03 -0.07,0.01 -0.1,0.03c-0.01,0 -0.02,0.01 -0.03,0.01c-0.03,0.02 -0.08,0 -0.1,0.03c-0.01,0.01 -0.02,0.01 -0.04,0c-0.02,0.03 -0.07,0 -0.1,0.03c0,0.01 -0.01,0.01 -0.02,0.01c-0.03,0.01 -0.05,0.01 -0.08,0.02c-0.01,0 -0.03,0.01 -0.05,0.01c-0.02,0.01 -0.05,0.01 -0.08,0.03c-0.01,0 -0.02,0 -0.03,0c-0.03,0.03 -0.07,0 -0.1,0.03l-0.01,0.01l-0.01,0c-0.03,0.01 -0.06,0.01 -0.08,0.02c-0.01,0.01 -0.02,0.01 -0.03,0.01c-0.02,0.01 -0.05,0.01 -0.07,0.02c-0.01,0.01 -0.02,0.01 -0.03,0.01c-0.03,0.03 -0.08,0 -0.1,0.03l-0.01,0.01l-0.01,0c-0.03,0.01 -0.06,0.01 -0.08,0.02c-0.01,0.01 -0.02,0.02 -0.03,0.01c-0.02,0.01 -0.05,0.01 -0.07,0.02c-0.01,0.01 -0.02,0.02 -0.03,0.01c-0.02,0.02 -0.05,0.01 -0.07,0.03c-0.01,0.01 -0.02,0.01 -0.03,0c-0.02,0.02 -0.05,0.02 -0.07,0.03c-0.01,0.01 -0.02,0.01 -0.03,0.01c-0.02,0.01 -0.05,0.01 -0.07,0.02c-0.01,0.01 -0.02,0.02 -0.03,0.01c-0.02,0.02 -0.05,0.01 -0.07,0.03c-0.01,0.01 -0.01,0.01 -0.03,0c-0.02,0.02 -0.05,0.01 -0.07,0.03c0,0.01 -0.01,0.01 -0.02,0.01c-0.03,0.01 -0.06,0.01 -0.08,0.02l-0.01,0.01l-0.01,0c-0.02,0.01 -0.05,0.01 -0.08,0.03l0,0c-0.02,0.02 -0.04,0.01 -0.06,0.03c-0.01,0 -0.02,0 -0.03,0.01c-0.02,0.01 -0.05,0.01 -0.07,0.02c-0.01,0.01 -0.02,0.02 -0.03,0.01c-0.02,0.01 -0.05,0.01 -0.07,0.03l-0.01,0c-0.01,0.02 -0.04,0.01 -0.06,0.03c-0.01,0 -0.02,0 -0.03,0.01c-0.02,0.01 -0.05,0.01 -0.07,0.02l-0.01,0.01l-0.01,0c-0.03,0.01 -0.06,0.01 -0.08,0.03l0,0c-0.02,0.02 -0.05,0.01 -0.06,0.03c-0.01,0.01 -0.02,0.01 -0.03,0.01c-0.01,0 -0.03,0.01 -0.04,0.02c-0.01,0 -0.02,0.01 -0.03,0.01c-0.02,0.02 -0.05,0.01 -0.07,0.03l-0.01,0.01l-0.01,-0.01c-0.02,0 -0.03,0.02 -0.05,0.03c0,0.01 -0.01,0.01 -0.03,0.01c-0.02,0.01 -0.05,0.01 -0.06,0.02l-0.01,0.01c-0.01,0.02 -0.04,0.01 -0.06,0.03c-0.01,0.01 -0.01,0.01 -0.02,0c-0.02,0 -0.03,0.02 -0.05,0.02c-0.01,0.02 -0.02,0.02 -0.03,0.01c-0.02,0.02 -0.05,0.01 -0.07,0.03l0,0.01c-0.02,0.02 -0.05,0.01 -0.06,0.03l-0.01,0.01l-0.01,-0.01c-0.02,0 -0.03,0.02 -0.05,0.03c0,0.01 -0.01,0.01 -0.02,0.01c-0.02,0 -0.03,0.01 -0.05,0.02c0,0.01 -0.01,0.01 -0.02,0.01c-0.03,0.01 -0.06,0.01 -0.07,0.03l-0.01,0c-0.01,0.02 -0.04,0.01 -0.06,0.03l0,0c-0.02,0.02 -0.05,0.01 -0.07,0.03l0,0c-0.02,0.03 -0.05,0.02 -0.06,0.03l-0.01,0.01l-0.01,0c-0.02,0 -0.04,0.01 -0.05,0.03c0,0.01 -0.01,0.01 -0.02,0.01c-0.02,0 -0.03,0.01 -0.05,0.02c0,0.01 -0.01,0.01 -0.02,0.01c-0.02,0 -0.03,0.01 -0.04,0.02c-0.01,0.01 -0.02,0.02 -0.03,0.01c-0.01,0 -0.03,0.02 -0.04,0.02c0,0.01 -0.01,0.02 -0.02,0.01c-0.02,0.01 -0.03,0.02 -0.05,0.03c0,0.01 -0.01,0.01 -0.02,0.01c-0.02,0 -0.03,0.01 -0.04,0.02c-0.01,0.01 -0.01,0.01 -0.03,0.01c-0.01,0 -0.03,0.01 -0.04,0.02c0,0.01 -0.01,0.02 -0.02,0.01c-0.02,0.01 -0.03,0.02 -0.04,0.03c-0.01,0.01 -0.02,0.01 -0.03,0.01c-0.01,0 -0.03,0.01 -0.04,0.02l-0.01,0.01l-0.01,0c-0.02,0 -0.03,0.01 -0.05,0.03l0,0c-0.02,0.02 -0.05,0.01 -0.06,0.03l-0.01,0c-0.01,0.02 -0.04,0.01 -0.06,0.03l0,0.01c-0.02,0.01 -0.05,0.01 -0.06,0.03l0,0c-0.02,0.02 -0.06,0.01 -0.07,0.04c-0.01,0 -0.02,0.01 -0.03,0.02c-0.01,0.01 -0.02,0.01 -0.03,0.01c-0.02,0 -0.03,0.01 -0.04,0.02l-0.01,0.01c-0.01,0.02 -0.04,0.01 -0.06,0.03l0,0c-0.02,0.02 -0.05,0.01 -0.06,0.04c-0.01,0 -0.03,0.01 -0.04,0.02c0,0.01 -0.01,0.01 -0.02,0.01c-0.02,0.01 -0.03,0.02 -0.04,0.03l-0.01,0.01l-0.01,-0.01c-0.02,0 -0.04,0.02 -0.05,0.03l0,0c-0.02,0.02 -0.05,0.01 -0.06,0.04c-0.02,0.01 -0.03,0.01 -0.04,0.02c0,0.01 -0.01,0.02 -0.02,0.01c-0.02,0.01 -0.03,0.02 -0.04,0.03l-0.01,0c-0.01,0.02 -0.05,0.01 -0.06,0.04c-0.01,0.01 -0.02,0.01 -0.03,0.02c-0.01,0.01 -0.01,0.02 -0.03,0.01c-0.02,0.01 -0.03,0.02 -0.04,0.03l0,0c-0.02,0.02 -0.05,0.01 -0.06,0.04c-0.02,0.01 -0.03,0.01 -0.04,0.02l-0.01,0.01c-0.01,0.02 -0.04,0.01 -0.05,0.03l-0.01,0c-0.01,0.01 -0.02,0.02 -0.03,0.03c0,0.01 -0.01,0.01 -0.02,0.01c-0.02,0 -0.03,0.01 -0.04,0.03l-0.01,0c-0.01,0.02 -0.05,0.01 -0.06,0.04c-0.01,0 -0.02,0.01 -0.03,0.02l-0.01,0c-0.01,0.02 -0.05,0.02 -0.06,0.04c-0.01,0.01 -0.02,0.02 -0.03,0.03l-0.01,0c-0.01,0.02 -0.05,0.01 -0.06,0.04c-0.01,0 -0.02,0.01 -0.03,0.02l-0.01,0.01c-0.01,0.02 -0.05,0.01 -0.06,0.03c-0.01,0.01 -0.02,0.02 -0.03,0.03l-0.01,0c-0.01,0.02 -0.05,0.01 -0.06,0.04c-0.01,0.01 -0.02,0.02 -0.03,0.03l-0.01,0c-0.01,0.02 -0.05,0.01 -0.06,0.04c-0.01,0 -0.02,0.01 -0.03,0.02l-0.01,0.01c-0.01,0.02 -0.04,0.01 -0.05,0.03c0,0 0,0 0,0.01l0,-0.01c-0.02,0.01 -0.03,0.02 -0.04,0.03l0,0c-0.01,0.01 -0.02,0.02 -0.04,0.03l0,0.01l-0.01,0c-0.03,0 -0.04,0.01 -0.05,0.03l0,0c-0.01,0.01 -0.03,0.02 -0.04,0.03l0,0c-0.01,0.02 -0.05,0.01 -0.06,0.04c0,0 0,0 0,0l0,0c-0.02,0 -0.03,0.02 -0.03,0.03l-0.01,0c-0.01,0.01 -0.02,0.02 -0.03,0.03l-0.01,0c-0.01,0.02 -0.04,0.01 -0.05,0.04c-0.02,0 -0.03,0.01 -0.04,0.03l0,0c-0.01,0.01 -0.02,0.02 -0.03,0.02l-0.01,0.01c-0.01,0.02 -0.04,0.01 -0.05,0.04c-0.02,0 -0.03,0.01 -0.04,0.03l0,0c-0.01,0.01 -0.02,0.02 -0.03,0.02l-0.01,0.01c-0.01,0.02 -0.05,0.01 -0.06,0.04c-0.01,0 -0.02,0.01 -0.03,0.03c-0.01,0.01 -0.03,0.02 -0.04,0.03l0,0c-0.01,0.02 -0.05,0.01 -0.06,0.04c0,0 0,0 0,0l0,0c-0.02,0 -0.03,0.01 -0.03,0.03c-0.02,0 -0.03,0.02 -0.04,0.03l0,0c-0.01,0.01 -0.02,0.02 -0.03,0.03l-0.01,0c-0.01,0.02 -0.05,0.01 -0.05,0.04c0,0 0,0 0,0l0,0c-0.02,0 -0.03,0.02 -0.04,0.03c-0.01,0.01 -0.02,0.02 -0.03,0.03l-0.01,0c-0.01,0.01 -0.02,0.02 -0.03,0.03l0,0c-0.02,0.03 -0.05,0.02 -0.06,0.05c-0.02,-0.01 -0.03,0.01 -0.03,0.03c-0.02,0 -0.03,0.01 -0.04,0.03c-0.01,0 -0.02,0.01 -0.03,0.03l-0.01,0c-0.01,0.01 -0.02,0.02 -0.03,0.02l0,0.01c-0.01,0.02 -0.05,0.01 -0.05,0.04c-0.03,0 -0.04,0.01 -0.04,0.03c-0.02,0.01 -0.03,0.02 -0.04,0.03c-0.01,0.01 -0.02,0.02 -0.03,0.03l0,0c-0.01,0.01 -0.02,0.02 -0.04,0.03l0,0.01c-0.01,0.01 -0.02,0.02 -0.03,0.02l0,0.01c-0.03,0.03 -0.07,0.04 -0.09,0.07l0,0l0,0c-0.02,0 -0.03,0.02 -0.04,0.03c-0.01,0.01 -0.02,0.02 -0.03,0.03c-0.02,0.01 -0.03,0.02 -0.04,0.04c-0.01,0.01 -0.02,0.02 -0.03,0.03l0,0c-0.01,0.01 -0.02,0.02 -0.03,0.03l-0.01,0c-0.01,0.01 -0.02,0.02 -0.03,0.03l0,0c-0.01,0.02 -0.02,0.02 -0.03,0.03l-0.01,0.01c-0.01,0.02 -0.04,0.01 -0.05,0.04c-0.02,0 -0.03,0.01 -0.03,0.03c0,0 0,0 0,0c0,0 0,0 0,0l0,0c-0.02,0 -0.03,0.01 -0.04,0.03c-0.02,0.01 -0.03,0.02 -0.03,0.03c-0.02,0.01 -0.03,0.02 -0.04,0.04c-0.01,0 -0.02,0.01 -0.03,0.03c-0.01,0.01 -0.03,0.02 -0.03,0.03c-0.02,0.01 -0.03,0.02 -0.04,0.03c-0.01,0.01 -0.02,0.02 -0.03,0.04l0,0c-0.01,0.01 -0.02,0.02 -0.03,0.03l-0.01,0c-0.01,0.01 -0.02,0.02 -0.03,0.03l0,0c-0.01,0.01 -0.02,0.02 -0.03,0.03l0,0c-0.01,0.02 -0.02,0.03 -0.03,0.04l-0.01,0c-0.01,0.01 -0.02,0.02 -0.03,0.03l0,0c-0.01,0.01 -0.02,0.02 -0.03,0.03l0,0c-0.01,0.01 -0.02,0.02 -0.04,0.03l0,0.01c-0.01,0.01 -0.02,0.02 -0.03,0.03l0,0c-0.01,0.01 -0.02,0.02 -0.03,0.03l0,0c-0.01,0.01 -0.02,0.02 -0.03,0.03l-0.01,0.01c-0.01,0.01 -0.02,0.02 -0.03,0.03l0,0c-0.01,0.01 -0.02,0.02 -0.03,0.03l0,0c-0.01,0.01 -0.02,0.02 -0.03,0.03l-0.01,0c-0.01,0.02 -0.02,0.03 -0.03,0.04l0,0c-0.01,0.01 -0.02,0.02 -0.03,0.03l0,0c-0.01,0.01 -0.02,0.02 -0.03,0.03l0,0c-0.02,0.01 -0.03,0.03 -0.04,0.04l0,0c-0.01,0.01 -0.02,0.02 -0.03,0.03c-0.01,0.01 -0.02,0.02 -0.03,0.04c-0.01,0 -0.03,0.01 -0.03,0.03c-0.02,0.01 -0.03,0.02 -0.04,0.03c-0.01,0.01 -0.02,0.02 -0.03,0.04c-0.01,0 -0.03,0.01 -0.03,0.03c-0.02,0 -0.03,0.02 -0.03,0.03l0,0.01l0,0l0,0l0,0c-0.02,0 -0.03,0.01 -0.03,0.03c-0.03,0 -0.02,0.04 -0.05,0.05l0,0.01c-0.01,0.01 -0.02,0.02 -0.03,0.02l0,0.01c-0.01,0.01 -0.02,0.02 -0.03,0.03l0,0c-0.01,0.01 -0.02,0.03 -0.03,0.04l0,0c-0.02,0.01 -0.03,0.02 -0.04,0.03c-0.01,0.01 -0.02,0.02 -0.03,0.04c-0.01,0 -0.02,0.01 -0.03,0.03c-0.01,0.01 -0.03,0.02 -0.03,0.04c-0.02,0 -0.03,0.01 -0.03,0.03l0,0c0,0 0,0 0,0c0,0 0,0 0,0c-0.03,0.01 -0.02,0.04 -0.04,0.05l-0.01,0.01c-0.01,0.01 -0.01,0.02 -0.03,0.03l0,0c-0.01,0.01 -0.02,0.02 -0.03,0.04l0,0c-0.01,0.01 -0.02,0.02 -0.03,0.03c-0.01,0.01 -0.02,0.02 -0.03,0.04c-0.02,0 -0.03,0.01 -0.03,0.03c-0.03,0.01 -0.02,0.05 -0.04,0.05l-0.01,0.01c0,0.01 -0.01,0.02 -0.02,0.03l-0.01,0c-0.01,0.02 -0.02,0.03 -0.03,0.04l0,0c-0.01,0.01 -0.02,0.02 -0.03,0.03c-0.01,0.01 -0.02,0.02 -0.03,0.04c-0.02,0.01 -0.01,0.04 -0.04,0.05l0,0.01c-0.01,0.01 -0.02,0.02 -0.03,0.03l0,0c-0.01,0.01 -0.02,0.03 -0.03,0.04l0,0c-0.01,0.01 -0.03,0.02 -0.03,0.03c-0.02,0.01 -0.03,0.02 -0.03,0.04c-0.03,0.01 -0.02,0.04 -0.04,0.05l-0.01,0.01c0,0.01 -0.01,0.02 -0.02,0.03l0,0c-0.02,0.01 -0.03,0.02 -0.03,0.04c-0.02,0.01 -0.03,0.02 -0.03,0.04c-0.03,0 -0.02,0.04 -0.04,0.05l-0.01,0c-0.01,0.02 -0.02,0.03 -0.03,0.04c-0.01,0.01 -0.02,0.02 -0.03,0.03c-0.02,0.01 -0.03,0.03 -0.03,0.05l0,0.01l-0.01,0.01c-0.01,0.01 -0.02,0.02 -0.03,0.03l0,0c-0.01,0.01 -0.02,0.02 -0.03,0.03c-0.01,0.01 -0.02,0.02 -0.03,0.04c-0.02,0.01 -0.02,0.05 -0.04,0.06l0,0c-0.01,0.01 -0.02,0.02 -0.03,0.04c-0.01,0.01 -0.02,0.02 -0.03,0.03c-0.02,0.01 -0.01,0.05 -0.04,0.06l0,0c-0.01,0.02 -0.02,0.03 -0.03,0.04c-0.01,0.01 -0.02,0.02 -0.02,0.04c-0.03,0.01 -0.02,0.04 -0.05,0.06l0,0c-0.01,0.01 -0.02,0.02 -0.02,0.03c-0.03,0.02 -0.02,0.05 -0.04,0.06l-0.01,0.01c0,0.01 -0.01,0.02 -0.02,0.03l0,0c-0.02,0.01 -0.03,0.02 -0.03,0.04c-0.03,0.01 -0.02,0.04 -0.04,0.06l0,0c-0.01,0.01 -0.02,0.02 -0.03,0.04c-0.02,0.01 -0.01,0.04 -0.04,0.05l0,0.01c-0.01,0.01 -0.02,0.02 -0.03,0.03c-0.01,0.02 -0.03,0.02 -0.03,0.04c-0.02,0.01 -0.02,0.05 -0.04,0.06l0,0c-0.01,0.01 -0.02,0.02 -0.02,0.04c-0.03,0.01 -0.02,0.05 -0.04,0.06l0,0c-0.01,0.01 -0.03,0.02 -0.03,0.04c-0.03,0.01 -0.02,0.05 -0.04,0.06l0,0c-0.01,0.01 -0.02,0.02 -0.03,0.04c-0.02,0.01 -0.01,0.04 -0.04,0.06l0,0c-0.01,0.01 -0.02,0.02 -0.02,0.04c-0.03,0.01 -0.02,0.04 -0.04,0.06l0,0c-0.01,0.01 -0.03,0.02 -0.03,0.04c-0.03,0.01 -0.02,0.04 -0.04,0.06l0,0c-0.01,0.01 -0.02,0.03 -0.03,0.05c0.01,0.01 0,0.01 -0.01,0.02c-0.01,0.01 -0.01,0.02 -0.02,0.03l0,0c-0.02,0.01 -0.02,0.05 -0.04,0.06l0,0c-0.01,0.02 -0.02,0.03 -0.03,0.04c-0.02,0.01 -0.01,0.05 -0.03,0.06l0,0c-0.01,0.02 -0.03,0.03 -0.03,0.04c-0.03,0.01 -0.02,0.05 -0.04,0.07c-0.02,0.01 -0.01,0.04 -0.03,0.06l-0.01,0c0,0.01 -0.02,0.02 -0.02,0.04c-0.03,0.01 -0.02,0.04 -0.04,0.06c-0.02,0.02 -0.01,0.05 -0.03,0.06l-0.01,0.01c0,0.01 -0.02,0.02 -0.02,0.03c-0.03,0.02 -0.02,0.05 -0.04,0.07c-0.02,0.01 -0.01,0.04 -0.03,0.06l0,0c-0.02,0.01 -0.03,0.03 -0.03,0.05c0,0.01 0,0.01 -0.01,0.02c-0.01,0.01 -0.02,0.02 -0.03,0.03l0.01,0c-0.03,0.02 -0.02,0.05 -0.04,0.07c-0.02,0.01 -0.01,0.04 -0.04,0.06l0,0c-0.01,0.02 -0.02,0.03 -0.02,0.05c0,0.01 0,0.02 -0.01,0.02c-0.01,0.01 -0.02,0.02 -0.03,0.04c-0.02,0.01 -0.02,0.04 -0.03,0.06c-0.02,0.02 -0.02,0.05 -0.04,0.07l0,0c-0.02,0.01 -0.01,0.04 -0.03,0.06l0,0c-0.02,0.01 -0.03,0.03 -0.03,0.05l0,0.01l-0.01,0.01c-0.01,0.01 -0.02,0.02 -0.02,0.04c0,0.01 0,0.02 -0.01,0.02c-0.01,0.02 -0.02,0.03 -0.03,0.04c-0.02,0.01 -0.02,0.04 -0.03,0.07c-0.02,0.01 -0.02,0.04 -0.03,0.06c-0.03,0.02 -0.02,0.05 -0.04,0.07l0,0c-0.02,0.01 -0.01,0.04 -0.03,0.06c-0.02,0.02 -0.02,0.05 -0.04,0.07c-0.02,0.02 -0.01,0.05 -0.03,0.06c-0.02,0.02 -0.01,0.05 -0.03,0.07c-0.02,0.02 -0.02,0.05 -0.04,0.07c-0.02,0.01 -0.01,0.04 -0.03,0.06c-0.02,0.02 -0.01,0.05 -0.03,0.07l0,0c-0.02,0.02 -0.02,0.05 -0.03,0.07l0,0c-0.03,0.01 -0.02,0.04 -0.03,0.06c-0.03,0.02 -0.02,0.05 -0.04,0.07c-0.02,0.02 -0.02,0.05 -0.03,0.07c-0.03,0.02 -0.02,0.05 -0.03,0.07c0,0.01 0,0.02 -0.01,0.02c-0.02,0.02 -0.01,0.05 -0.03,0.07l0,0c-0.02,0.02 -0.02,0.05 -0.03,0.07c-0.02,0.02 -0.02,0.05 -0.04,0.07l0,-0.01c-0.02,0.02 -0.01,0.05 -0.03,0.07c-0.02,0.02 -0.02,0.05 -0.03,0.08l0,0.01l-0.01,0.01c-0.02,0.02 -0.01,0.05 -0.03,0.06c-0.02,0.02 -0.01,0.05 -0.03,0.07c-0.02,0.02 -0.02,0.05 -0.03,0.08c0.01,0.01 0,0.02 -0.01,0.02c-0.01,0.02 -0.01,0.05 -0.03,0.07c-0.02,0.01 -0.01,0.04 -0.03,0.06c-0.02,0.02 -0.02,0.06 -0.03,0.08l0,0.01l-0.01,0.01c-0.01,0.02 -0.01,0.05 -0.02,0.07l0,0c-0.03,0.02 -0.02,0.05 -0.04,0.08l0.01,0.01l-0.01,0.01c-0.02,0.02 -0.01,0.05 -0.03,0.07l0,-0.01c-0.02,0.03 -0.02,0.06 -0.03,0.08l0,0.01l-0.01,0.01c-0.02,0.02 -0.01,0.05 -0.03,0.07l0,0c-0.03,0.02 0,0.07 -0.03,0.1l0,0c-0.02,0.02 -0.02,0.05 -0.03,0.07c0,0.01 0,0.02 -0.01,0.03c-0.01,0.02 -0.01,0.04 -0.03,0.06l0,0c-0.02,0.03 -0.02,0.06 -0.03,0.09l0.01,0.01l-0.01,0c-0.02,0.02 -0.02,0.05 -0.03,0.08c0,0.01 0,0.02 -0.01,0.02c-0.01,0.02 -0.01,0.05 -0.02,0.07l0,0c-0.04,0.02 -0.01,0.07 -0.04,0.1l0,0c-0.03,0.02 0,0.07 -0.03,0.1c-0.02,0.02 -0.02,0.05 -0.03,0.08l0,0.01l-0.01,0.01c-0.02,0.02 -0.02,0.05 -0.03,0.08l0.01,0.01l-0.01,0.01c-0.02,0.02 -0.02,0.05 -0.03,0.08l0,0.01l0,0c-0.02,0.03 -0.02,0.06 -0.03,0.08l0,0.02l-0.01,0c-0.02,0.03 -0.02,0.06 -0.02,0.09l0,0.01l-0.01,0c-0.03,0.03 0,0.08 -0.03,0.1c-0.03,0.03 -0.01,0.08 -0.03,0.11l0,-0.01c-0.04,0.03 -0.01,0.08 -0.04,0.11c0.01,0.01 0.01,0.02 0,0.03c-0.02,0.02 -0.02,0.05 -0.03,0.07c0.01,0.01 0.01,0.02 0,0.03c-0.03,0.02 -0.01,0.07 -0.03,0.1l0,0c-0.03,0.03 -0.01,0.07 -0.04,0.1c0.01,0.01 0.01,0.02 0,0.03c-0.03,0.03 0,0.07 -0.03,0.1l0,0c-0.03,0.03 -0.01,0.07 -0.03,0.11l0,0.01l-0.01,0.01c-0.02,0.03 0,0.08 -0.03,0.11c0.01,0.01 0.01,0.02 0,0.02c-0.03,0.03 0,0.08 -0.03,0.11c0.01,0.01 0,0.02 0,0.03c-0.03,0.03 -0.01,0.07 -0.03,0.1c0,0.01 0,0.02 -0.01,0.03c-0.02,0.03 0,0.07 -0.03,0.1c0.01,0.01 0.01,0.02 0,0.03c-0.02,0.03 0,0.07 -0.03,0.11c0.01,0.01 0.01,0.02 0,0.02c-0.03,0.04 -0.01,0.08 -0.03,0.12l0,0.01l0,0.01c-0.04,0.04 0,0.09 -0.04,0.13c0.01,0.01 0.01,0.02 0,0.03c-0.03,0.04 0,0.1 -0.03,0.14c0.01,0.01 0.01,0.02 0,0.03c-0.03,0.04 0,0.09 -0.03,0.13c0,0.01 0,0.02 -0.01,0.03c-0.03,0.05 0,0.1 -0.02,0.14c0,0.01 0,0.02 -0.01,0.03c-0.03,0.05 0,0.1 -0.03,0.15c0,0.02 0,0.03 0,0.05c-0.03,0.04 -0.01,0.1 -0.03,0.15c0,0.01 0,0.03 -0.01,0.05c-0.03,0.05 0.01,0.12 -0.02,0.17c-0.01,0.02 -0.01,0.04 -0.01,0.06c-0.03,0.06 0,0.12 -0.03,0.18c0,0.02 0,0.03 0,0.05c-0.04,0.08 0.01,0.16 -0.03,0.24c0,0.02 0,0.04 -0.01,0.06c-0.03,0.09 0.01,0.18 -0.02,0.27c-0.01,0.02 -0.01,0.04 -0.01,0.06c-0.04,0.12 0.01,0.25 -0.03,0.38c0.01,0.04 0.01,0.08 0,0.12c-0.03,0.13 -0.01,0.26 -0.01,0.39c0,0.4 -0.02,0.8 0.01,1.2c0.01,0.04 0.01,0.08 0,0.12c0.04,0.12 -0.01,0.25 0.03,0.37c0,0.03 0.01,0.06 0.01,0.09c0.03,0.09 -0.01,0.19 0.03,0.28c0,0.01 0,0.03 0,0.05c0.03,0.07 0,0.14 0.03,0.21c0,0.02 0,0.04 0,0.06c0.04,0.07 0,0.14 0.03,0.21c0.01,0.01 0.01,0.02 0,0.03c0.04,0.05 0,0.11 0.03,0.17c0.01,0.02 0.01,0.03 0.01,0.05c0.03,0.06 -0.01,0.12 0.03,0.18c0.01,0 0.01,0.01 0,0.02c0.03,0.05 0,0.1 0.03,0.14c0.01,0.01 0.01,0.02 0,0.03c0.04,0.06 0,0.12 0.04,0.17l0,0.01l0,0.01c0.02,0.05 0,0.1 0.03,0.15l0.01,0.01l-0.01,0.01c0.03,0.04 0,0.1 0.03,0.14l0,0c0.04,0.04 0,0.1 0.03,0.14c0.01,0 0.01,0.01 0.01,0.02c0.03,0.04 -0.01,0.1 0.03,0.14l0,0c0.03,0.04 -0.01,0.1 0.03,0.13l0.01,0.01l-0.01,0.01c0.02,0.04 0.01,0.08 0.03,0.12l0.01,0l0,0.01c0.01,0.04 0,0.08 0.03,0.12l0,0c0.03,0.04 -0.01,0.09 0.03,0.13l0,0c0.03,0.03 0,0.07 0.03,0.1c0.01,0.01 0.01,0.02 0,0.03c0.03,0.03 0.01,0.07 0.03,0.1l0.01,0.01l0,0.01c0.01,0.03 0.01,0.06 0.02,0.08c0.01,0.01 0.01,0.02 0.01,0.03c0.02,0.03 0,0.08 0.03,0.1c0.03,0.03 0.01,0.08 0.03,0.1c0.01,0.01 0.01,0.02 0.01,0.03c0.02,0.03 0,0.08 0.03,0.11l0,-0.01c0.03,0.03 0,0.08 0.03,0.11l0,-0.01c0.03,0.03 0,0.08 0.03,0.11l0,0c0.03,0.02 0.01,0.07 0.04,0.1l0,-0.01c0.03,0.03 0,0.08 0.03,0.11l0,-0.01c0.03,0.03 0,0.08 0.03,0.1l0,0c0.03,0.03 0.01,0.08 0.04,0.1l0,0c0.03,0.03 0,0.08 0.03,0.1l0,0c0.02,0.02 0.01,0.05 0.03,0.07c0.01,0.01 0.01,0.01 0.01,0.02c0.01,0.03 0.01,0.06 0.02,0.08l0,0c0.04,0.03 0.01,0.07 0.04,0.1l0,0c0.02,0.02 0.01,0.04 0.03,0.06c0.01,0.01 0.01,0.02 0,0.03c0.02,0.02 0.02,0.05 0.03,0.07l0,0c0.04,0.03 0.01,0.08 0.04,0.1l0,0c0.02,0.02 0.01,0.05 0.03,0.07l0.01,0.01l-0.01,0.01c0.01,0.03 0.01,0.06 0.04,0.08l0,0c0.01,0.02 0.01,0.05 0.02,0.07l0.01,0l0,0.01c0.01,0.03 0.01,0.06 0.03,0.08c0.02,0.03 0.01,0.05 0.03,0.07l0,0c0.02,0.02 0.02,0.05 0.03,0.07c0.01,0 0.02,0.01 0.01,0.02c0.01,0.03 0.01,0.06 0.03,0.08l0,0c0.02,0.02 0.01,0.04 0.03,0.06l0,0.01c0.02,0.01 0.02,0.04 0.03,0.06c0.01,0 0.02,0.01 0.01,0.02c0.01,0.03 0.01,0.06 0.03,0.08c0.02,0.02 0.01,0.05 0.03,0.07l0,-0.01c0.02,0.02 0.02,0.05 0.03,0.07l0.01,0c0.02,0.02 0.01,0.05 0.03,0.07l0.01,0.01l-0.01,0.01c0.01,0.02 0.01,0.06 0.04,0.07c0.01,0.03 0,0.06 0.03,0.07c0.01,0.02 0.01,0.05 0.03,0.07l0,0c0.02,0.02 0.01,0.05 0.03,0.07l0,0c0.02,0.01 0.01,0.04 0.04,0.06c0.01,0.02 0.01,0.05 0.03,0.07l0,0c0.02,0.02 0.01,0.05 0.03,0.06l0,0.01c0.02,0.01 0.02,0.04 0.03,0.06l0,0c0.03,0.02 0.02,0.05 0.04,0.07l0,0c0.02,0.02 0.01,0.05 0.03,0.06l0,0c0.02,0.02 0.01,0.05 0.03,0.07l0,0c0.02,0.02 0.02,0.05 0.04,0.07l0,0c0.02,0.01 0.01,0.04 0.03,0.06l0,0c0.02,0.02 0.01,0.05 0.03,0.07c0.02,0.02 0.02,0.05 0.04,0.06l0,0c0.01,0.02 0.01,0.05 0.03,0.07c0.02,0.02 0.01,0.05 0.04,0.06c0.01,0.03 0,0.06 0.03,0.07c0,0.02 0.02,0.03 0.02,0.04l0.02,0l-0.01,0.02c0,0.02 0.02,0.03 0.03,0.04l0,0.01c0.02,0.01 0.02,0.04 0.04,0.06c0.01,0.02 0.01,0.05 0.03,0.06c0.02,0.02 0.01,0.06 0.04,0.07c0,0.01 0.01,0.02 0.02,0.04l0.01,0l0,0.01c0,0.02 0.01,0.04 0.03,0.05l0,0c0.02,0.02 0.01,0.05 0.03,0.07c0.02,0.02 0.01,0.05 0.04,0.06c0.01,0.01 0.01,0.03 0.02,0.04l0.01,0l0,0.02c0,0.02 0.02,0.03 0.03,0.04l0,0c0.02,0.02 0.01,0.05 0.04,0.07c0.01,0.02 0.01,0.05 0.03,0.06c0,0.02 0.02,0.03 0.03,0.04l0,0c0.02,0.02 0.01,0.05 0.04,0.06c0.01,0.02 0,0.06 0.03,0.07c0,0.01 0.02,0.02 0.03,0.04l0,0c0.02,0.01 0.01,0.05 0.04,0.06c0.01,0.02 0,0.05 0.03,0.06l0,0c0,0 0,0 0,0c0.01,0 0.01,0 0.01,0l-0.01,0c0,0.02 0.02,0.03 0.03,0.04l0,0c0.02,0.02 0.01,0.05 0.04,0.06c0,0.02 0.01,0.03 0.02,0.04l0,0c0.03,0.02 0.02,0.05 0.04,0.06c0.02,0.02 0.01,0.06 0.04,0.06l0,0l0,0c0,0 0,0 0,0l0,0.01c0,0.01 0.01,0.02 0.03,0.03c0.01,0.02 0.01,0.06 0.03,0.06c0.01,0.02 0.02,0.03 0.03,0.04l0,0c0.02,0.02 0.01,0.05 0.04,0.07c0,0.01 0.02,0.02 0.03,0.03l0,0.01c0.02,0.01 0.01,0.04 0.04,0.06c0,0.01 0.01,0.02 0.02,0.03l0,0.01c0.02,0.01 0.02,0.04 0.04,0.05c0,0.02 0.02,0.03 0.03,0.04l0,0c0.02,0.02 0.01,0.05 0.04,0.06c0,0.02 0.01,0.03 0.02,0.04l0.01,0c0.02,0.02 0.01,0.05 0.03,0.06c0.01,0.02 0.02,0.03 0.03,0.04l0,0c0.02,0.02 0.01,0.05 0.04,0.06c0,0.02 0.02,0.03 0.03,0.04c0.02,0.02 0.01,0.05 0.04,0.06l0,0l0,0l0,0l0,0c0,0.02 0.01,0.03 0.03,0.04c0.01,0.01 0.01,0.02 0.02,0.03l0.01,0.01c0.02,0.01 0.01,0.04 0.03,0.05c0.01,0.02 0.02,0.03 0.03,0.04l0,0c0.02,0.02 0.01,0.05 0.04,0.06c0,0.02 0.02,0.03 0.03,0.04c0.02,0.03 0.04,0.07 0.07,0.1c0,0.01 0.02,0.02 0.03,0.03l0,0.01c0.02,0.01 0.01,0.05 0.04,0.05l0,0l0,0l0,0l0,0c0,0.02 0.01,0.03 0.03,0.04c0,0.02 0.02,0.03 0.03,0.04l0,0c0.02,0.01 0.01,0.05 0.04,0.06c0,0 0,0 0,0c0,0 0,0 0,0l0,0c0,0.02 0.01,0.03 0.03,0.04c0,0.01 0.01,0.02 0.02,0.03l0.01,0c0.02,0.02 0.01,0.05 0.04,0.06c0,0.02 0.01,0.03 0.03,0.04c0,0.01 0.01,0.02 0.02,0.03l0.01,0.01c0.02,0.01 0.01,0.05 0.04,0.05c0,0 0,0 0,0c0,0 0,0 0,0l0,0c0,0.02 0.01,0.03 0.03,0.04c0,0.02 0.01,0.02 0.02,0.04l0.01,0c0.02,0.03 0.03,0.07 0.07,0.09c0,0.02 0.01,0.03 0.03,0.04l0,0c0.01,0.01 0.01,0.02 0.02,0.03l0.01,0.01c0.02,0.01 0.01,0.04 0.04,0.05c0,0 0,0 0,0c0,0 0,0 0,0l0,0c0,0.02 0.01,0.03 0.03,0.04c0,0.01 0.01,0.02 0.03,0.03l0,0.01c0.02,0.02 0.03,0.07 0.07,0.09c0,0 0,0 0,0l0,0c0,0.02 0.01,0.03 0.03,0.03c0,0.02 0.02,0.03 0.03,0.04l0,0c0.03,0.03 0.03,0.07 0.07,0.09l0,0l0,0c0,0.02 0.02,0.03 0.03,0.04c0.01,0.02 0.02,0.03 0.03,0.04c0.01,0.01 0.02,0.02 0.03,0.03l0,0c0.03,0.03 0.04,0.07 0.08,0.09l0,0l0,0c0,0.02 0.01,0.03 0.03,0.04c0,0.01 0.01,0.02 0.03,0.03c0.01,0.02 0.02,0.03 0.03,0.04l0,0c0.03,0.03 0.03,0.07 0.07,0.09c0,0 0,0 0,0l0,0c0,0.02 0.02,0.03 0.03,0.04c0.01,0.01 0.02,0.02 0.03,0.03c0.01,0.02 0.02,0.03 0.03,0.04l0.01,0c0.01,0.01 0.01,0.02 0.03,0.03l0,0c0.03,0.03 0.03,0.08 0.07,0.09c0,0.02 0.01,0.03 0.03,0.04l0,0l0,0c0,0 0,0 0,0c0.01,0.01 0.02,0.03 0.03,0.03c0.01,0.02 0.02,0.03 0.04,0.04c0,0.01 0.01,0.02 0.03,0.03l0,0c0.01,0.01 0.02,0.02 0.03,0.03l0,0.01c0.04,0.04 0.06,0.09 0.11,0.12c0,0.02 0.01,0.03 0.03,0.03c0,0 0,0 0,0c0,0 0,0 0,0c0,0.02 0.01,0.03 0.03,0.04c0,0.02 0.02,0.03 0.03,0.03c0.01,0.02 0.02,0.03 0.03,0.04c0.01,0.01 0.02,0.02 0.03,0.03l0.01,0c0.01,0.01 0.02,0.03 0.03,0.04l0,0c0.01,0.01 0.02,0.02 0.03,0.03l0,0c0.04,0.06 0.09,0.11 0.14,0.16c0,0.02 0.01,0.03 0.03,0.03c0.01,0.02 0.02,0.03 0.04,0.03c0,0.02 0.01,0.03 0.03,0.04c0.02,0.01 0.04,0.03 0.05,0.04c0.4,0.43 0.82,0.84 1.24,1.24c1.69,1.65 2.88,3.6 3.59,5.85c0.29,0.92 0.51,1.86 0.44,2.84c0,3.01 0,6.03 0,9.04c0,0.1 0,0.2 -0.01,0.3c-0.02,0.19 -0.02,0.37 0.01,0.56c0.15,0.97 1.04,1.68 2.11,1.43c0.12,-0.03 0.24,-0.05 0.36,-0.05c0.93,0 1.85,0 2.78,0c0.19,0 0.33,0.06 0.42,0.23c0.19,0.32 0.46,0.55 0.77,0.73c0.38,0.22 0.78,0.35 1.2,0.42c0.2,0.04 0.41,0.07 0.62,0.1c0.29,0 0.59,0 0.89,-0.01c0.27,-0.01 0.54,-0.04 0.8,-0.11c0.58,-0.16 1.08,-0.47 1.54,-0.84c0.11,-0.09 0.21,-0.19 0.27,-0.31c0.1,-0.17 0.23,-0.22 0.42,-0.21c0.59,0 1.19,0 1.78,0c0.43,0.01 0.86,0.01 1.29,0.08c0.99,0.16 1.9,-0.64 1.92,-1.65c0.01,-0.19 -0.01,-0.38 -0.01,-0.58c0,-3.32 0,-6.63 0,-9.95c0,-0.11 0.01,-0.22 0.02,-0.33c0.06,-0.37 0.14,-0.74 0.24,-1.1c0.7,-2.57 2.01,-4.77 3.94,-6.61c1,-0.94 1.93,-1.96 2.77,-3.05c1.38,-1.78 2.49,-3.71 3.26,-5.83c0.53,-1.46 0.86,-2.96 0.97,-4.5c0.05,-0.61 0.06,-1.22 0.03,-1.83zm-14.58,31.83c0,0.13 -0.01,0.14 -0.14,0.15c-0.29,0 -0.57,0 -0.85,0c-3.07,0 -6.14,0 -9.21,0c-0.29,0 -0.24,-0.02 -0.24,-0.24c0,-0.16 0,-0.32 0,-0.48c-0.01,-0.07 0.02,-0.09 0.08,-0.09c0.05,0 0.09,0 0.14,0c1.66,0 3.33,0 5,0c1.67,0 3.35,0 5.03,0c0.21,0 0.19,-0.03 0.19,0.19c0,0.15 0,0.31 0,0.47zm-0.11,-3.87c-0.12,-0.01 -0.25,-0.01 -0.37,-0.01c-1.57,0 -3.15,0 -4.73,0c-1.68,0 -3.37,0 -5.05,0c-0.22,0 -0.18,0.03 -0.19,-0.18c0,-0.19 0,-0.37 0,-0.56c0,-0.14 0,-0.13 0.14,-0.13c0.34,0 0.67,0 1.01,0c3.04,0 6.07,0 9.11,0c0.01,0 0.03,0 0.05,0c0.15,0 0.14,-0.02 0.14,0.14c0,0.21 -0.01,0.42 0,0.63c0,0.09 -0.03,0.11 -0.11,0.11zm11.32,-26.45c-0.1,1.53 -0.47,2.99 -1.06,4.4c-0.73,1.73 -1.73,3.31 -2.93,4.76c-0.66,0.8 -1.39,1.54 -2.14,2.26c-0.91,0.88 -1.72,1.85 -2.42,2.91c-1.21,1.84 -2.03,3.84 -2.5,5.99c-0.11,0.54 -0.18,1.08 -0.16,1.63c0,0.12 0.01,0.25 -0.01,0.37c-0.13,0.05 -0.27,0.02 -0.39,0.02c-1.61,0 -3.22,0 -4.83,0c-1.66,0 -3.32,0 -4.98,0c-0.02,0 -0.03,0 -0.05,0c-0.21,0 -0.18,0.01 -0.18,-0.17c0.01,-1.12 -0.21,-2.2 -0.53,-3.27c-0.75,-2.47 -1.98,-4.66 -3.69,-6.59c-0.41,-0.46 -0.86,-0.89 -1.3,-1.32c-1.21,-1.17 -2.29,-2.45 -3.19,-3.87c-0.83,-1.29 -1.5,-2.65 -1.95,-4.12c-0.25,-0.85 -0.44,-1.71 -0.52,-2.6c-0.08,-0.74 -0.08,-1.48 -0.02,-2.22c0.11,-1.19 0.39,-2.34 0.79,-3.47c0.74,-2.11 1.82,-4.02 3.31,-5.7c1.98,-2.25 4.42,-3.76 7.3,-4.55c0.98,-0.27 1.97,-0.44 2.97,-0.54c0.93,-0.09 1.87,-0.12 2.8,-0.09c2.03,0.07 4.01,0.42 5.91,1.17c2.5,1 4.58,2.58 6.24,4.7c1.61,2.05 2.68,4.36 3.26,6.9c0.26,1.12 0.34,2.25 0.27,3.4z" fill="#eb4034" id="svg_20"/>
  <path d="m18.95,45.19l0,0.01l0,-0.01z" fill="#eb4034" id="svg_21"/>
  <path d="m18.59,44.8l-0.01,0l0.01,0l0,0l0,0z" fill="#eb4034" id="svg_22"/>
  <path d="m18.32,44.5l0,0l0,0l0,0l0,0z" fill="#eb4034" id="svg_23"/>
  <path d="m16.11,41.55l-0.01,0l0.01,0c0,0 0,0 0,0z" fill="#eb4034" id="svg_24"/>
  <path d="m17.5,43.5l-0.01,0.01l0.01,0c0,0 0,0 0,-0.01z" fill="#eb4034" id="svg_25"/>
  <path d="m18.06,19.47l-0.01,-0.01l0.01,0.01l0,0l0,0z" fill="#eb4034" id="svg_26"/>
  <path d="m18.36,19.14l-0.01,-0.01l0.01,0.01l0,0z" fill="#eb4034" id="svg_27"/>
  <path d="m15.94,41.28l0,0.01l0,0c0,-0.01 0,-0.01 0,-0.01z" fill="#eb4034" id="svg_28"/>
  <path d="m17.27,43.21l-0.01,0l0.01,0c0,0 0,0 0,0z" fill="#eb4034" id="svg_29"/>
  <path d="m16.64,42.34l-0.01,0.01l0.01,0c0,-0.01 0,-0.01 0,-0.01z" fill="#eb4034" id="svg_30"/>
  <path d="m16.97,42.81l-0.01,0l0.01,0c0,0 0,0 0,0z" fill="#eb4034" id="svg_31"/>
  <path d="m43.1,30.75c0.39,-0.44 0.78,-0.89 1.17,-1.33c0.23,-0.25 0.34,-0.55 0.32,-0.88c0.02,-0.28 -0.05,-0.53 -0.19,-0.77c-0.29,-0.5 -0.57,-1.01 -0.86,-1.52c-0.12,-0.2 -0.23,-0.41 -0.36,-0.61c-0.28,-0.44 -0.7,-0.62 -1.2,-0.6c-0.34,0 -0.68,0.08 -1.03,0.12c-0.48,0.06 -0.96,0.11 -1.44,0.18c-0.1,0.01 -0.17,-0.01 -0.25,-0.08c-0.54,-0.44 -1.12,-0.82 -1.74,-1.14c-0.34,-0.18 -0.69,-0.34 -1.05,-0.47c-0.08,-0.02 -0.12,-0.06 -0.15,-0.14c-0.07,-0.26 -0.17,-0.52 -0.25,-0.78c-0.16,-0.48 -0.32,-0.97 -0.49,-1.44c-0.19,-0.53 -0.7,-0.89 -1.29,-0.89c-0.81,-0.01 -1.62,-0.01 -2.43,0c-0.54,0 -0.92,0.27 -1.17,0.73c-0.14,0.28 -0.25,0.57 -0.38,0.86c-0.21,0.51 -0.43,1.01 -0.64,1.52c-0.03,0.07 -0.08,0.11 -0.15,0.14c-1.02,0.37 -1.96,0.9 -2.81,1.58c-0.06,0.05 -0.12,0.07 -0.2,0.05c-0.64,-0.14 -1.28,-0.28 -1.92,-0.41c-0.26,-0.06 -0.52,-0.14 -0.8,-0.08c-0.43,0.08 -0.76,0.29 -0.98,0.67c-0.1,0.18 -0.21,0.34 -0.31,0.51c-0.31,0.53 -0.63,1.05 -0.93,1.58c-0.28,0.48 -0.23,0.97 0.07,1.42c0.15,0.24 0.33,0.47 0.5,0.7c0.34,0.46 0.68,0.91 1.01,1.37c0.04,0.05 0.05,0.1 0.04,0.16c-0.06,0.36 -0.11,0.72 -0.13,1.08c-0.02,0.51 -0.02,1.02 0.03,1.52c0.03,0.25 0.06,0.5 0.1,0.75c0.01,0.07 0,0.13 -0.05,0.18c-0.13,0.14 -0.26,0.29 -0.39,0.43c-0.32,0.36 -0.65,0.71 -0.97,1.07c-0.38,0.43 -0.46,1.11 -0.16,1.63c0.41,0.69 0.79,1.4 1.19,2.1c0.2,0.35 0.51,0.57 0.92,0.63c0.22,0.03 0.45,0.01 0.67,-0.01c0.45,-0.05 0.9,-0.1 1.35,-0.16c0.23,-0.03 0.47,-0.03 0.7,-0.08c0.09,-0.02 0.16,0.01 0.22,0.07c0.2,0.18 0.41,0.34 0.63,0.49c0.77,0.55 1.6,0.99 2.5,1.29c0.06,0.02 0.09,0.05 0.11,0.11c0.19,0.58 0.38,1.17 0.57,1.75c0.08,0.24 0.16,0.49 0.32,0.69c0.25,0.3 0.57,0.51 0.96,0.52c0.86,0.03 1.72,0.02 2.58,0.02c0.24,0 0.46,-0.05 0.66,-0.18c0.27,-0.16 0.45,-0.4 0.58,-0.68c0.31,-0.73 0.62,-1.46 0.92,-2.19c0.05,-0.11 0.12,-0.17 0.23,-0.22c0.85,-0.35 1.66,-0.78 2.4,-1.35c0.09,-0.07 0.18,-0.19 0.29,-0.21c0.11,-0.02 0.24,0.05 0.37,0.07c0.62,0.13 1.24,0.29 1.87,0.39c0.41,0.06 0.78,-0.05 1.09,-0.32c0.14,-0.13 0.25,-0.28 0.35,-0.44c0.39,-0.66 0.78,-1.32 1.17,-1.98c0.13,-0.23 0.2,-0.47 0.19,-0.74c-0.01,-0.31 -0.13,-0.59 -0.32,-0.84c-0.45,-0.62 -0.91,-1.24 -1.38,-1.86c-0.05,-0.07 -0.07,-0.13 -0.05,-0.21c0.07,-0.43 0.12,-0.86 0.13,-1.3c0,-0.33 0,-0.66 -0.02,-0.99c-0.02,-0.32 -0.06,-0.65 -0.12,-0.97c-0.01,-0.05 0.02,-0.09 0.05,-0.13c0.12,-0.13 0.23,-0.25 0.35,-0.38zm-1.31,-2.33c-0.44,0.5 -0.87,0.99 -1.31,1.48c-0.23,0.25 -0.36,0.54 -0.42,0.88c-0.02,0.15 0,0.31 0.05,0.46c0.19,0.74 0.28,1.49 0.23,2.26c-0.02,0.34 -0.07,0.69 -0.19,1.01c-0.14,0.39 -0.09,0.76 0.14,1.09c0.31,0.44 0.64,0.87 0.96,1.31c0.14,0.19 0.28,0.37 0.42,0.56c0.03,0.05 0.04,0.08 0,0.14c-0.11,0.18 -0.22,0.37 -0.32,0.56c-0.05,0.08 -0.1,0.09 -0.19,0.07c-0.62,-0.13 -1.24,-0.25 -1.86,-0.4c-0.47,-0.12 -0.87,-0.02 -1.24,0.29c-0.54,0.46 -1.11,0.86 -1.73,1.2c-0.36,0.2 -0.74,0.37 -1.14,0.5c-0.08,0.02 -0.16,0.05 -0.24,0.08c-0.22,0.09 -0.37,0.25 -0.46,0.47c-0.29,0.75 -0.59,1.5 -0.89,2.24c-0.04,0.12 -0.1,0.16 -0.23,0.15c-0.19,-0.01 -0.38,0 -0.58,0c-0.07,0 -0.1,-0.02 -0.13,-0.09c-0.13,-0.4 -0.26,-0.8 -0.39,-1.19c-0.09,-0.27 -0.18,-0.54 -0.27,-0.8c-0.13,-0.37 -0.38,-0.61 -0.74,-0.75c-0.35,-0.14 -0.7,-0.27 -1.04,-0.42c-0.53,-0.22 -1.01,-0.52 -1.47,-0.85c-0.29,-0.2 -0.57,-0.4 -0.85,-0.61c-0.32,-0.24 -0.68,-0.32 -1.08,-0.28c-0.45,0.06 -0.91,0.11 -1.36,0.16c-0.25,0.03 -0.5,0.05 -0.76,0.09c-0.07,0.01 -0.12,-0.01 -0.15,-0.08c-0.1,-0.19 -0.21,-0.38 -0.32,-0.56c-0.04,-0.07 -0.03,-0.11 0.02,-0.16c0.23,-0.26 0.47,-0.52 0.71,-0.78c0.2,-0.22 0.39,-0.45 0.6,-0.67c0.35,-0.35 0.45,-0.78 0.36,-1.26c-0.13,-0.73 -0.19,-1.47 -0.14,-2.22c0.02,-0.27 0.04,-0.54 0.1,-0.8c0.04,-0.19 0.06,-0.37 0.03,-0.56c-0.05,-0.24 -0.1,-0.47 -0.24,-0.68c-0.42,-0.61 -0.88,-1.2 -1.32,-1.8c0,-0.01 0,-0.01 -0.01,-0.01c-0.06,-0.11 -0.2,-0.2 -0.2,-0.32c0.01,-0.11 0.12,-0.22 0.18,-0.33c0.06,-0.1 0.13,-0.21 0.19,-0.32c0.03,-0.05 0.06,-0.07 0.12,-0.05c0.63,0.14 1.26,0.27 1.89,0.41c0.39,0.09 0.75,0.05 1.12,-0.08c0.13,-0.04 0.23,-0.13 0.33,-0.22c0.65,-0.6 1.37,-1.09 2.17,-1.46c0.24,-0.12 0.49,-0.22 0.75,-0.29c0.44,-0.12 0.71,-0.42 0.88,-0.82c0.26,-0.63 0.53,-1.26 0.79,-1.89c0.02,-0.03 0.04,-0.06 0.05,-0.1c0.02,-0.05 0.05,-0.08 0.11,-0.07c0.23,0 0.45,0 0.68,0c0.08,-0.01 0.1,0.03 0.13,0.09c0.19,0.6 0.39,1.2 0.59,1.79c0.09,0.29 0.23,0.56 0.44,0.78c0.15,0.16 0.33,0.28 0.55,0.32c0.47,0.1 0.91,0.26 1.33,0.48c0.56,0.3 1.05,0.68 1.51,1.1c0.22,0.2 0.47,0.37 0.77,0.42c0.15,0.02 0.29,0.02 0.43,0.01c0.72,-0.09 1.45,-0.18 2.17,-0.27c0.08,-0.01 0.13,0 0.17,0.08c0.1,0.19 0.21,0.37 0.32,0.56c0.01,0.02 0.02,0.05 0.03,0.07c0,0.04 -0.03,0.06 -0.05,0.08z" fill="#eb4034" id="svg_32"/>
  <path d="m33.02,27.08c-3.17,-0.01 -5.83,2.54 -5.84,5.8c-0.02,3.3 2.61,5.85 5.82,5.86c3.27,0.01 5.84,-2.67 5.83,-5.83c0.01,-3.18 -2.59,-5.82 -5.81,-5.83zm-0.17,9.15c-1.63,-0.07 -3.17,-1.4 -3.17,-3.32c0,-1.88 1.52,-3.34 3.34,-3.32c1.77,-0.02 3.32,1.44 3.31,3.33c-0.01,1.93 -1.61,3.39 -3.48,3.31z" fill="#eb4034" id="svg_33"/>
 </g>
</svg>