<?xml version="1.0"?>
<svg width="500" height="500" xmlns="http://www.w3.org/2000/svg" xmlns:svg="http://www.w3.org/2000/svg" preserveAspectRatio="xMidYMid meet" version="1.0">
 <g class="layer">
  <title>Layer 1</title>
  <ellipse cx="249.5" cy="422.5" fill="#ffffff" id="svg_28" rx="65.5" ry="63"/>
  <ellipse cx="423.5" cy="249.5" fill="#ffffff" id="svg_27" rx="65.5" ry="63" transform="matrix(1 0 0 1 0 0)"/>
  <ellipse cx="76.5" cy="248.5" fill="#ffffff" id="svg_29" rx="65.5" ry="63" transform="matrix(1 0 0 1 0 0)"/>
  <ellipse cx="249.5" cy="77" fill="#ffffff" id="svg_26" rx="65.5" ry="63" transform="matrix(1 0 0 1 0 0)"/>
  <g fill="#000000" id="svg_1" transform="matrix(0.1 0 0 -0.1 0 0)">
   <path d="m2420,-91c-97,-8 -149,-23 -230,-64c-204,-104 -332,-268 -379,-487c-25,-116 -26,-163 -6,-257c32,-152 79,-249 170,-349c334,-369 936,-281 1148,168c41,88 56,148 64,256c16,241 -92,466 -293,610c-140,100 -291,139 -474,123zm189,-169c66,-12 110,-32 186,-83c256,-172 310,-539 112,-775c-125,-150 -302,-219 -495,-192c-211,28 -401,208 -443,419c-16,83 -7,220 21,293c59,158 209,295 365,334c62,15 185,17 254,4z" id="svg_2"/>
   <path d="m2400,-409c-119,-39 -210,-117 -258,-221c-22,-46 -26,-70 -26,-150c-1,-87 2,-101 31,-162c94,-199 331,-279 523,-177c76,40 133,102 172,186c27,56 31,77 31,147c0,213 -156,375 -368,383c-44,1 -91,-1 -105,-6zm120,-105c4,-25 12,-31 53,-41c57,-14 64,-20 48,-39c-6,-8 -10,-20 -9,-27c2,-9 -4,-13 -17,-11c-98,15 -123,14 -144,-7c-11,-11 -21,-25 -21,-31c0,-18 44,-50 90,-65c26,-9 65,-31 86,-49c37,-32 39,-37 39,-89c0,-48 -4,-60 -29,-86c-16,-17 -44,-34 -63,-37c-28,-5 -33,-10 -33,-34c0,-46 -10,-60 -41,-60c-26,0 -29,3 -29,33c0,35 -2,37 -99,63c-20,5 -22,10 -17,37c9,45 18,49 59,32c56,-23 103,-19 133,10c24,24 25,28 11,48c-14,22 -24,28 -111,69c-26,12 -59,36 -73,52c-49,59 -11,157 74,188c28,10 33,17 33,46c0,30 2,33 27,30c22,-2 29,-9 33,-32z" id="svg_3"/>
   <path d="m3276,-862c-4,-50 -6,-91 -4,-92c2,-1 46,-27 98,-58c241,-142 452,-350 603,-592c27,-44 56,-95 64,-113c13,-33 14,-33 66,-28c74,8 122,14 124,14c7,2 -53,123 -99,199c-180,301 -469,571 -774,725l-71,36l-7,-91z" fill="#000000" fill-opacity="0" id="svg_4" stroke="#000000" stroke-opacity="0" transform="matrix(1 0 0 1 0 0)"/>
   <path d="m1594,-829c-342,-181 -637,-486 -813,-840c-16,-33 -27,-63 -23,-65c4,-2 34,-4 67,-3c33,0 70,-2 81,-6c19,-7 27,2 64,70c40,73 107,174 147,224c73,88 153,175 220,235c86,78 274,210 341,240c42,18 44,20 38,54c-3,19 -6,59 -6,88c0,35 -4,52 -12,52c-7,0 -54,-22 -104,-49z" fill="#000000" fill-opacity="0" id="svg_5"/>
   <path d="m2380,-1666c-119,-32 -218,-116 -274,-234c-28,-60 -30,-73 -31,-175c0,-104 2,-113 33,-178c57,-116 159,-198 287,-232c80,-20 134,-19 215,6c132,40 238,140 281,265c111,322 -182,636 -511,548z" fill="#eb1c24" id="svg_6"/>
   <path d="m631,-1821c-104,-20 -258,-99 -340,-173c-71,-65 -151,-192 -189,-303c-23,-70 -26,-93 -26,-213c0,-112 4,-146 22,-198c74,-217 226,-377 429,-453c330,-123 693,17 857,331c57,109 79,199 79,325c0,191 -63,344 -198,481c-146,148 -308,216 -509,213c-45,-1 -101,-5 -125,-10zm272,-168c6,-6 18,-11 27,-11c32,0 141,-62 194,-111c189,-172 232,-434 110,-659c-28,-52 -125,-154 -185,-194c-19,-13 -70,-36 -113,-51c-177,-61 -377,-20 -522,107c-58,51 -119,141 -150,220c-25,64 -29,87 -29,178c0,156 41,257 151,372c78,82 153,125 279,159c43,12 224,4 238,-10z" id="svg_7"/>
   <path d="m947,-2307c-4,-3 -7,-93 -7,-198c0,-154 3,-195 14,-204c8,-7 37,-11 68,-9l53,3l3,208l2,207l-63,0c-35,0 -67,-3 -70,-7z" id="svg_8"/>
   <path d="m782,-2482c-8,-8 -12,-49 -12,-119c0,-119 0,-119 70,-119c70,0 70,0 70,125c0,94 -3,114 -16,119c-27,10 -99,7 -112,-6z" id="svg_9"/>
   <path d="m435,-2542c-9,-31 -12,-147 -3,-162c14,-25 114,-23 128,3c14,27 13,144 -2,159c-16,16 -117,16 -123,0z" id="svg_10"/>
   <path d="m607,-2626c-4,-4 -7,-24 -7,-45c0,-42 10,-49 73,-49c58,0 69,10 65,56l-3,39l-60,3c-34,2 -64,0 -68,-4z" id="svg_11"/>
   <path d="m4082,-1821c-101,-20 -215,-75 -314,-154c-92,-72 -177,-199 -220,-330c-33,-100 -33,-299 0,-399c71,-219 229,-385 438,-460c173,-62 347,-56 511,20c121,55 206,120 273,210c171,229 192,534 53,774c-71,120 -210,243 -340,298c-112,48 -280,65 -401,41zm317,-183c190,-77 310,-222 349,-421c11,-60 3,-172 -17,-234c-29,-90 -66,-152 -126,-214c-112,-115 -233,-168 -383,-169c-228,-1 -423,136 -508,354c-25,64 -29,87 -29,178c0,90 4,115 28,178c44,119 120,213 225,280c35,22 77,44 95,47c18,4 37,11 42,15c17,14 66,18 165,15c74,-2 109,-9 159,-29z" id="svg_12"/>
   <path d="m4115,-2143c-110,-37 -196,-113 -243,-215c-22,-48 -26,-71 -26,-147c-1,-78 3,-98 27,-151c56,-121 183,-211 312,-222c169,-13 325,86 385,246c39,103 19,249 -46,344c-33,47 -112,110 -169,134c-53,22 -188,28 -240,11zm155,-201l0,-135l58,-40c109,-76 100,-62 69,-110c-15,-22 -33,-41 -40,-40c-6,0 -52,26 -102,58l-90,57l-3,172l-2,172l55,0l55,0l0,-134z" id="svg_13"/>
   <path d="m2042,-2425c-28,-8 -64,-22 -80,-32c-50,-31 -113,-98 -140,-148l-27,-50l-3,-367l-3,-368l706,0l706,0l-3,358l-3,357l-26,56c-15,31 -43,75 -64,98c-45,49 -141,97 -212,106c-50,6 -55,5 -96,-29c-51,-41 -137,-84 -189,-92c-45,-8 -47,-16 -12,-39l25,-16l-23,-29c-13,-16 -40,-48 -60,-73l-38,-44l20,-79c11,-43 31,-130 45,-193l25,-114l-45,-94c-24,-51 -48,-93 -52,-93c-5,1 -27,42 -51,93c-45,96 -47,117 -22,202c5,17 21,87 35,158l27,127l-41,49c-22,26 -47,54 -56,61c-22,18 -19,35 10,50c35,19 31,26 -17,34c-56,9 -136,48 -186,92c-45,38 -67,41 -150,19z" fill="#eb1c24" id="svg_14" stroke="#ff0000" transform="matrix(1 0 0 1 0 0)"/>
   <path d="m823,-3302l-72,-10l31,-61c134,-267 332,-505 568,-683c99,-75 287,-188 331,-199l26,-6l6,88c3,48 2,89 -1,91c-4,1 -44,23 -88,48c-158,89 -329,232 -451,377c-76,92 -181,244 -222,325c-13,26 -28,42 -39,41c-9,-1 -49,-6 -89,-11z" fill="#000000" fill-opacity="0" id="svg_15"/>
   <path d="m4005,-3380c-96,-174 -239,-345 -409,-489c-83,-71 -222,-165 -289,-197l-38,-18l7,-86c4,-47 9,-87 11,-90c7,-7 175,84 263,143c188,125 393,328 518,512c54,80 163,277 159,289c-1,4 -25,10 -52,12c-27,1 -65,5 -84,8l-36,6l-50,-90z" fill="#000000" fill-opacity="0" id="svg_16"/>
   <path d="m2440,-3537c-307,-24 -559,-245 -629,-551c-26,-116 -26,-163 -1,-282c38,-178 124,-314 266,-420c114,-85 230,-128 374,-137c241,-15 468,91 605,283c198,276 176,641 -53,886c-57,61 -151,129 -223,163c-92,41 -236,66 -339,58zm172,-174c202,-42 379,-232 409,-441c62,-426 -375,-748 -761,-561c-97,47 -201,150 -246,243c-133,276 -17,599 261,726c29,14 73,29 97,33c63,13 179,13 240,0z" id="svg_17"/>
   <path d="m2542,-3873c-6,-7 -14,-33 -18,-57c-10,-64 -40,-130 -78,-170c-77,-83 -76,-78 -76,-237l0,-144l38,-16c27,-12 70,-17 168,-17c144,-1 170,7 160,50c-4,16 0,27 15,38c16,11 22,25 21,48c0,18 6,41 15,50c10,12 14,27 10,47c-4,19 -1,33 8,41c18,15 20,61 3,78c-8,8 -47,12 -110,12c-113,0 -117,3 -93,70c26,72 31,164 11,195c-18,27 -56,34 -74,12z" id="svg_18"/>
   <path d="m2140,-4334l0,-174l73,-4c39,-2 87,-1 105,1l32,3l0,174l0,174l-105,0l-105,0l0,-174zm94,-140c-8,-22 -48,-17 -52,7c-2,10 2,25 9,33c11,13 15,13 31,-4c12,-11 16,-25 12,-36z" id="svg_19"/>
   <ellipse cx="352" cy="153" fill="#000000" id="svg_22" opacity="0.5" rx="20" ry="11"/>
  </g>
 </g>
</svg>