<?xml version="1.0" encoding="utf-8"?>
<!-- Generator: Adobe Illustrator 25.3.1, SVG Export Plug-In . SVG Version: 6.00 Build 0)  -->
<svg version="1.1" id="Layer_1" xmlns="http://www.w3.org/2000/svg" xmlns:xlink="http://www.w3.org/1999/xlink" x="0px" y="0px"
	 viewBox="0 0 457.5 377" style="enable-background:new 0 0 457.5 377;" xml:space="preserve">
<style type="text/css">
	.st0{fill:none;stroke:#EE0000;stroke-width:2;stroke-linecap:round;stroke-miterlimit:10;}
	.st1{fill:#DEDEDE;}
	.st2{fill:#EE0000;}
	.st3{fill:none;stroke:#EE0000;stroke-width:2;stroke-miterlimit:10;}
	.st4{fill:#FFFFFF;}
	.st5{fill:#AAAAAA;}
	.st6{fill:none;stroke:#EE0000;stroke-width:9;stroke-miterlimit:10;}
	.st7{fill:#F56D6D;}
	.st8{fill:#FFFFFF;stroke:#DEDEDE;stroke-width:2.4363;stroke-miterlimit:10;}
	.st9{fill:none;stroke:#EE0000;stroke-width:1.8269;stroke-linecap:round;stroke-miterlimit:10;}
	.st10{fill:#FAB6B6;}
	.st11{clip-path:url(#SVGID_3_);fill:#C9C9C9;}
	.st12{fill:none;stroke:#DEDEDE;stroke-width:2.4363;stroke-miterlimit:10;}
	.st13{clip-path:url(#SVGID_5_);}
	.st14{clip-path:url(#SVGID_7_);fill:#EE0000;}
	.st15{clip-path:url(#SVGID_9_);}
	.st16{fill:none;stroke:#DEDEDE;stroke-miterlimit:10;}
	.st17{fill:none;stroke:#000000;stroke-width:1.05;stroke-linecap:round;stroke-linejoin:round;stroke-miterlimit:10;}
	.st18{fill:#4D4D4D;}
	.st19{clip-path:url(#SVGID_11_);fill:#F56D6D;}
	.st20{fill:none;stroke:#F56D6D;stroke-linecap:round;stroke-linejoin:round;stroke-miterlimit:10;}
	.st21{clip-path:url(#SVGID_14_);fill:#F56D6D;}
	.st22{clip-path:url(#SVGID_16_);}
	.st23{clip-path:url(#SVGID_18_);}
	.st24{fill:#8F0000;}
	.st25{fill:#5F0000;}
	.st26{fill:none;stroke:#5F0000;stroke-width:2.1583;stroke-linecap:round;stroke-linejoin:round;stroke-miterlimit:10;}
	.st27{fill:#8B8B8B;}
	.st28{fill:none;stroke:#000000;stroke-width:2;stroke-linecap:round;stroke-linejoin:round;stroke-miterlimit:10;}
	.st29{fill:none;stroke:#EE0000;stroke-width:4;stroke-linecap:round;stroke-linejoin:round;stroke-miterlimit:10;}
	.st30{fill:#C9C9C9;}
	.st31{fill:none;stroke:#5F0000;stroke-width:2.1583;stroke-linecap:round;stroke-miterlimit:10;}
	.st32{fill:none;stroke:#F3F3F3;stroke-width:1.5723;stroke-linecap:round;stroke-linejoin:round;stroke-miterlimit:10;}
	.st33{fill:none;}
	.st34{clip-path:url(#SVGID_20_);fill:#5F0000;}
	.st35{clip-path:url(#SVGID_22_);fill:#5F0000;}
</style>
<g id="Art">
	<g>
		<path class="st0" d="M332.2,307.9h-2.9v-15.8h2.9c3.9,0,7.1,3.2,7.1,7.1v1.6C339,304.8,336,307.9,332.2,307.9z"/>
		<path class="st1" d="M359.9,24.4c-2.3,0-4.6,0.3-6.5,0.8c0-0.2,0-0.4,0-0.6c0-10.2-8.2-18.4-18.4-18.4c-9,0-16.5,6.4-18.1,14.9
			c-1.3-0.3-2.6-0.5-4-0.5c-8.5,0-15.4,6.9-15.4,15.4s6.9,15.4,15.4,15.4h47.7c7.5,0,13.5-6,13.5-13.5
			C374.2,30.4,368,24.4,359.9,24.4z"/>
		<path class="st1" d="M59.1,49.1c-27.7,25.4-24.7,68.3-5.3,92.6s59.5,42.9,74.6,110.2c15,67.3,35.8,115.8,101,118.9s90-45,90-84.7
			c0-16.5,3.7-33.2,11.4-47.7c4.8-8.9,11.4-16.4,19.2-22.7c7.7-6.1,16.9-10.4,24-17.2c13.7-13.1,19.7-32.7,17.1-51.3
			c-1-6.9-3.1-13.6-6.3-19.8c-7.7-14.9-22.4-25.8-38.6-30c-12.3-3.2-25.7-2.8-38.3-2.7c-15.5,0.2-31.3,0.8-47,0.2
			c-13.9-0.5-28.5-1.6-41.5-6.8c-0.8-0.3-1.6-0.7-2.3-1C183,71.7,157.4,47,129.6,38.5S75.4,34.2,59.1,49.1z"/>
		<polygon class="st2" points="231.8,33.1 231.8,65 231.8,96.9 231.8,128.8 231.8,160.6 328.4,160.6 328.4,128.8 328.4,96.9 
			328.4,65 328.4,33.1 		"/>
		<polygon class="st3" points="231.8,33.1 231.8,65 231.8,96.9 231.8,128.8 231.8,160.6 328.4,160.6 328.4,128.8 328.4,96.9 
			328.4,65 328.4,33.1 		"/>
		<g>
			<g>
				<rect x="224.9" y="33.1" class="st4" width="96.5" height="31.9"/>
				<g>
					<circle class="st2" cx="306.2" cy="44.1" r="2.2"/>
					<circle class="st5" cx="306.2" cy="53.9" r="2.2"/>
				</g>
				<line class="st6" x1="235.7" y1="49.1" x2="286.6" y2="49.1"/>
			</g>
			<rect x="224.9" y="65" class="st4" width="96.5" height="31.9"/>
			<g>
				<line class="st6" x1="309" y1="73.3" x2="309" y2="88.5"/>
				<line class="st6" x1="300" y1="73.3" x2="300" y2="88.5"/>
			</g>
			<g>
				<circle class="st5" cx="269.1" cy="80.9" r="2.2"/>
				
					<ellipse transform="matrix(0.1602 -0.9871 0.9871 0.1602 135.2601 320.7638)" class="st5" cx="256.1" cy="80.9" rx="2.2" ry="2.2"/>
				<circle class="st2" cx="243.1" cy="80.9" r="2.2"/>
			</g>
		</g>
		<g>
			<g>
				<rect x="224.9" y="96.9" class="st4" width="96.5" height="31.9"/>
				<g>
					<circle class="st2" cx="306.2" cy="107.9" r="2.2"/>
					<circle class="st5" cx="306.2" cy="117.7" r="2.2"/>
				</g>
				<line class="st6" x1="235.7" y1="112.8" x2="286.6" y2="112.8"/>
			</g>
			<rect x="224.9" y="128.8" class="st4" width="96.5" height="31.9"/>
			<g>
				<line class="st6" x1="309" y1="137.1" x2="309" y2="152.3"/>
				<line class="st6" x1="300" y1="137.1" x2="300" y2="152.3"/>
			</g>
			<g>
				<circle class="st2" cx="269.1" cy="144.7" r="2.2"/>
				
					<ellipse transform="matrix(0.1602 -0.9871 0.9871 0.1602 72.2797 374.3477)" class="st5" cx="256.1" cy="144.7" rx="2.2" ry="2.2"/>
				<circle class="st5" cx="243.1" cy="144.7" r="2.2"/>
			</g>
		</g>
		<path class="st2" d="M323.2,319.5h-8c-3.9,0-7.1-3.2-7.1-7.1v-20.4h22.1v20.4C330.3,316.4,327.1,319.5,323.2,319.5z"/>
		<path class="st7" d="M323.2,319.5h-4v-27.4h11.1v20.4C330.3,316.4,327.1,319.5,323.2,319.5z"/>
		<g>
			<rect x="224.9" y="33.1" class="st3" width="96.5" height="31.9"/>
			<rect x="224.9" y="65" class="st3" width="96.5" height="31.9"/>
			<rect x="224.9" y="96.9" class="st3" width="96.5" height="31.9"/>
			<rect x="224.9" y="128.8" class="st3" width="96.5" height="31.9"/>
		</g>
		<path class="st8" d="M207.1,150.2c0,15.7-11.8,28.7-27,30.5c-1,0.2-2,0.3-3.1,0.3H64.9c-13.6,0-24.5-11-24.5-24.5
			c0-13.6,11-24.5,24.5-24.5c4.5,0,8.5,1.2,12.1,3.2c2.1-20.2,20.3-39.6,46.7-39.6c16.7,0,33.3,10.5,39.2,25.3
			c4.2-1,8.6-1.5,13.4-1.5C193.5,119.5,207.1,133.3,207.1,150.2z"/>
		<polyline class="st3" points="89.5,180.9 89.5,320 342.2,320 		"/>
		<line class="st9" x1="306.6" y1="292.2" x2="332" y2="292.2"/>
		<g>
			<g>
				<rect x="271.3" y="188.6" class="st2" width="83.3" height="7.9"/>
				<rect x="292.9" y="203.1" class="st2" width="36" height="7.9"/>
				<g>
					<g>
						<rect id="SVGID_1_" x="339" y="203.1" class="st10" width="79.7" height="7.9"/>
					</g>
					<g>
						<g>
							<g>
								<defs>
									<rect id="SVGID_2_" x="339" y="203.1" width="79.7" height="7.9"/>
								</defs>
								<clipPath id="SVGID_3_">
									<use xlink:href="#SVGID_2_"  style="overflow:visible;"/>
								</clipPath>
								<path class="st11" d="M59.1,49.1c-27.7,25.4-24.7,68.3-5.3,92.6s59.5,42.9,74.6,110.2c15,67.3,35.8,115.8,101,118.9
									s90-45,90-84.7c0-16.5,3.7-33.2,11.4-47.7c4.8-8.9,11.4-16.4,19.2-22.7c7.7-6.1,16.9-10.4,24-17.2
									c13.7-13.1,19.7-32.7,17.1-51.3c-1-6.9-3.1-13.6-6.3-19.8c-7.7-14.9-22.4-25.8-38.6-30c-12.3-3.2-25.7-2.8-38.3-2.7
									c-15.5,0.2-31.3,0.8-47,0.2c-13.9-0.5-28.5-1.6-41.5-6.8c-0.8-0.3-1.6-0.7-2.3-1C183,71.7,157.4,47,129.6,38.5
									S75.4,34.2,59.1,49.1z"/>
							</g>
						</g>
					</g>
				</g>
			</g>
			<rect x="364.9" y="188.5" class="st10" width="29.1" height="7.9"/>
		</g>
		<path class="st12" d="M207.1,150.2c0,15.7-11.8,28.7-27,30.5c-1,0.2-2,0.3-3.1,0.3H64.9c-13.6,0-24.5-11-24.5-24.5
			c0-13.6,11-24.5,24.5-24.5c4.5,0,8.5,1.2,12.1,3.2c2.1-20.2,20.3-39.6,46.7-39.6c16.7,0,33.3,10.5,39.2,25.3
			c4.2-1,8.6-1.5,13.4-1.5C193.5,119.5,207.1,133.3,207.1,150.2z"/>
		<path class="st12" d="M89.9,121.9c1.8-3,4.2-5.8,6.8-8.2c5.1-4.7,14-10.2,27.2-10.2c3.4,0,6.8,0.6,10.1,1.6"/>
		<path class="st12" d="M84.6,139.5l0.4-3.4c0.3-2.7,1-5.4,1.9-8"/>
		<g>
			<g>
				<g>
					<g>
						<defs>
							<path id="SVGID_4_" d="M59.1,49.1c-27.7,25.4-24.7,68.3-5.3,92.6s59.5,42.9,74.6,110.2c15,67.3,35.8,115.8,101,118.9
								s90-45,90-84.7c0-16.5,3.7-33.2,11.4-47.7c4.8-8.9,11.4-16.4,19.2-22.7c7.7-6.1,16.9-10.4,24-17.2
								c13.7-13.1,19.7-32.7,17.1-51.3c-1-6.9-3.1-13.6-6.3-19.8c-7.7-14.9-22.4-25.8-38.6-30c-12.3-3.2-25.7-2.8-38.3-2.7
								c-15.5,0.2-31.3,0.8-47,0.2c-13.9-0.5-28.5-1.6-41.5-6.8c-0.8-0.3-1.6-0.7-2.3-1C183,71.7,157.4,47,129.6,38.5
								S75.4,34.2,59.1,49.1z"/>
						</defs>
						<clipPath id="SVGID_5_">
							<use xlink:href="#SVGID_4_"  style="overflow:visible;"/>
						</clipPath>
						<g class="st13">
							<rect x="339" y="203.1" class="st2" width="79.7" height="7.9"/>
							<rect x="364.9" y="188.5" class="st2" width="29.1" height="7.9"/>
						</g>
					</g>
				</g>
			</g>
		</g>
		<g>
			<rect x="126.8" y="17.4" width="85.3" height="96"/>
			<rect x="122.9" y="13.5" class="st4" width="85.3" height="96"/>
			<g>
				<g>
					<g>
						<g>
							<defs>
								<rect id="SVGID_6_" x="122.9" y="13.5" width="85.3" height="96"/>
							</defs>
							<clipPath id="SVGID_7_">
								<use xlink:href="#SVGID_6_"  style="overflow:visible;"/>
							</clipPath>
							<path class="st14" d="M118.8,71.9c1.6-0.4,8.2-1.7,12-0.7c3.8,1.1,4.8,2.8,5.6,5.8l0.7,23.7l-23.9-0.5L118.8,71.9z"/>
						</g>
					</g>
				</g>
				<g>
					<g>
						<g>
							<defs>
								<rect id="SVGID_8_" x="122.9" y="13.5" width="85.3" height="96"/>
							</defs>
							<clipPath id="SVGID_9_">
								<use xlink:href="#SVGID_8_"  style="overflow:visible;"/>
							</clipPath>
							<polygon class="st15" points="187.9,107.1 200.7,76 216.8,76 205.1,107.2 							"/>
						</g>
					</g>
				</g>
			</g>
		</g>
		<path class="st10" d="M145.2,62.5c-1.1,1.9-3.1,3.7-4.8,4.8c-1.8,1.1-2.9,1.9-2.9,1.9s3.4-0.1,5.9,1.3c2.4,1.4,6.6,11.5,9,14.4
			c2.3,2.9,7.2,4.8,9.3,4.2c1-0.3,1.2,0.1,1.2,0.1s-3.2-4.1-5.5-8.3c-2.3-4.3-2.9-6.2-2.3-8.6c0.7-2.4-5.8-9.5-5.8-9.5L145.2,62.5z"
			/>
		<path class="st16" d="M171.9,61.1c0,0-0.9,0.6-1.1,0.9c-0.2,0.3-2.1-1.6-2.3-3.1c-0.3-1.6,1.6-1.2,1.6-1.2L171.9,61.1z"/>
		<path class="st10" d="M179.1,40.6c0.2,1,0.1,4.6-0.4,6.3c-0.8,3.1-1.7,3.8-2.3,5.1s-0.2,3.5,1.1,6.4c0.5,1.2-0.2,1.7-1.4,1.6
			c-1.2-0.1-2.2-0.8-2.2-0.8s-0.7,0.8-0.4,1.5c0.4,0.7-1.2,0.8-1.5,0.8c0,0-1.1-0.7-1.9-1.6c-0.9-1.1-1.5-0.9-1.2,1.1
			c0.3,1.9,1.1,2.4,1.1,2.4s0,0.8-0.4,1.3s-0.9-0.3-1.6,0.9c-0.8,1.2-1.2,2-2.4,2c-1.2,0-3.2-1.1-4.6-3.4c0,0-0.7-0.7-2.3,0.9
			c-1.6,1.6-3.2,4.8-3.8,7.3c0,0-1.6,1.2-4.8-0.7c-3.4-1.8-4.8-9-4.8-9s7.1-17.4,11.8-21.8s11.8-6.9,16.3-5.7
			C178,36,179.1,40.6,179.1,40.6z"/>
		<path class="st17" d="M171.4,50.3c0,0-0.1,0.7,0.6,0.6c0.7-0.1,1.7-0.1,2.1,0.1c0.4,0.4,0.1,0.9,0.1,0.9s0.1,0.4,0.8,0.4"/>
		<path d="M174.3,51.7c0,0-0.5,0.8-1.3,1c0,0-0.4-0.5-0.5-0.6c0,0,0.5-0.9,1-1c0.5-0.1,0.7,0.1,0.8,0.2
			C174.3,51.4,174.3,51.7,174.3,51.7z"/>
		<path d="M170.2,47.4c0,0,1.6-0.3,2.6,0c1.1,0.3,2.1,1.1,2.5,1.6c0.4,0.4,0.9,0.7,0.9,0.7s0.7,0,1.1-0.5c0,0-1.9-2-3.6-2.4
			C172.1,46.4,170.2,47.4,170.2,47.4z"/>
		<path class="st18" d="M137.4,69.2c0,0,1.8-1,4-0.7c2.1,0.3,4.8,2,7,6.5c2.1,4.5,3.9,9.9,6.7,12.1c2.3,1.7,4.8,1.7,6.9,1
			c0,0,3.2,3.7,4.5,5.6c1.2,1.9,1.1,6.2-2.5,8.8c-1.2,0.9-1.9,6.3-2,6.6h-27.3c0,0-2.6-14.3-2.3-21.4c0.3-7.2-0.7-10.3-0.1-12.2
			C132.7,73.5,135.7,70.4,137.4,69.2z"/>
		<path d="M144.7,85.1c0,0-2.9,9.9-4,14.6c-1.1,4.8,0.2,10.3,0.2,10.3l4.4,0.1c0,0-1.1-6.8-1.1-14C144.2,88.8,144.7,85.1,144.7,85.1
			z"/>
		<path class="st10" d="M128.3,96.3c0,0,0.1,8.3,1.8,13.4h11.6c0,0-0.8-7,0.2-13c1-6-7.3-5.9-8.2-5.9S128.5,90.9,128.3,96.3z"/>
		<path class="st18" d="M131.8,75.8c0.7-1.6,3.1-4.4,4.1-4.8c1.1-0.5,3.8-1.1,6.5,2.4c2.8,3.4,2.8,8.4,2.3,11.7
			c-0.5,3.3-2.1,8.3-2.6,11.6c0,0-0.4-0.9-6.2-1.3c-5.8-0.4-7.5,0.9-7.5,0.9s0.1-4.8,0.6-9.8C129.5,81.6,130.4,78.9,131.8,75.8z"/>
		<g>
			<path class="st10" d="M178.5,101.5c1.2,0.8,3.1,1.7,3.6,2c0.4,0.2,3.1,2.8,3.3,3.1c0.3,0.2,0.1,0.5-0.5,0.6
				c-0.6,0.1-1.1-0.5-1.1-0.5l-3.3-2"/>
			<path class="st10" d="M184.3,107.4c-0.6,0.1-1.3-0.3-1.6-0.5c-0.4-0.3-1.7-1.2-1.7-1.2c-0.4-0.2-1.7-1.1-1.8-1.1
				c0.1,0.1,0.9,1,1.3,1.4c0.5,0.6,1.2,1.7,1.2,1.7s-0.5,0.2-0.9,0s-1.6-1.3-2.1-1.6c-0.6-0.4-2.4-0.8-2.4-0.8c-0.7-0.1-2.6,0-4,0.2
				c-1.4,0.1-2.2-0.2-3-0.5c-0.6-0.3-1.1-0.3-2-0.2c-1,0.2-2.4,1-4.5,2.5l-3.3,2.2c-1.7,0-10.7,0.5-10.7,0.5s11.9-7.2,14.6-8.3
				c2.6-1.2,5.4-1.7,7.4-1.6c2,0.2,4.2,0.4,5.1,0.5c1,0,1.2,0,2.1,0.6c0.4,0.3,1.8,1.7,3.4,2.6c0.8,0.4,2.1,2.2,2.8,2.7
				C184.5,106.6,184.8,107.3,184.3,107.4z"/>
		</g>
		<polygon points="185.9,107.1 203.2,107.1 203.2,109.2 156.6,109.2 156.6,107.2 		"/>
		<rect x="122.9" y="13.5" class="st3" width="85.3" height="96"/>
		<g>
			<g>
				<g>
					<g>
						<defs>
							<path id="SVGID_10_" d="M179.1,40.6c0.2,1,0.1,4.6-0.4,6.3c-0.8,3.1-1.7,3.8-2.3,5.1s-0.2,3.5,1.1,6.4
								c0.5,1.2-0.2,1.7-1.4,1.6c-1.2-0.1-2.2-0.8-2.2-0.8s-0.7,0.8-0.4,1.5c0.4,0.7-1.2,0.8-1.5,0.8c0,0-1.1-0.7-1.9-1.6
								c-0.9-1.1-1.5-0.9-1.2,1.1c0.3,1.9,1.1,2.4,1.1,2.4s0,0.8-0.4,1.3s-0.9-0.3-1.6,0.9c-0.8,1.2-1.2,2-2.4,2
								c-1.2,0-3.2-1.1-4.6-3.4c0,0-0.7-0.7-2.3,0.9c-1.6,1.6-3.2,4.8-3.8,7.3c0,0-1.6,1.2-4.8-0.7c-3.4-1.8-4.8-9-4.8-9
								s7.1-17.4,11.8-21.8s11.8-6.9,16.3-5.7C178,36,179.1,40.6,179.1,40.6z"/>
						</defs>
						<clipPath id="SVGID_11_">
							<use xlink:href="#SVGID_10_"  style="overflow:visible;"/>
						</clipPath>
						<path class="st19" d="M161,63.9c-1.9-4.2-1.6-7.8-1.6-7.8l-3.6,14.4"/>
					</g>
				</g>
			</g>
		</g>
		<path d="M171.9,31.8c0,0-4.8-2.8-10-2c-5.2,0.8-8.7,3.3-10.8,7.1c-2,3.8-2.5,8.9-3,10.8c-0.5,1.8-1.7,2.5-3.7,3
			c-1.9,0.4-4.6,1.3-5,3.6c-0.5,2.3-1.4,6.4-2.7,6.5c-1.4,0.2-3.6,0.2-4.7,2.1c-1.1,1.9-0.8,5.8,1.5,6.8c2.2,1,4.8,0.3,6.1-0.8
			c0,0,4.1,2.8,9.4,1.6c5.2-1.1,7.2-6.9,7.5-9.5c0.3-2.6,0.8-11.3,2.9-13.8c2.1-2.4,4.7-1.8,4.7-1.8s0.4,0.8,1.6,0.7
			c1.2-0.1,4.5-1,7.1-3.3c2.6-2.3,5.3-1.6,6.5-0.5c0,0,2.4,0,4.4-1.7c1.9-1.7,2.7-7.3-1.2-9.6s-7.2-0.4-7.5,0.9
			c-0.4,1.3-0.1,1.7-0.1,1.7S173.1,32.5,171.9,31.8z"/>
		<path class="st10" d="M164.1,45.5c0,0-0.2-1.6-1.7-2c-1.6-0.5-2.9,1.2-3.1,3.2c-0.2,1.9,0.1,4.4,1.4,4.8c1.3,0.5,1.7-0.4,1.7-0.4"
			/>
		<path class="st20" d="M164.1,45.5c0,0-0.2-1.6-1.7-2c-1.6-0.5-2.9,1.2-3.1,3.2c-0.2,1.9,0.1,4.4,1.4,4.8c1.3,0.5,1.7-0.4,1.7-0.4"
			/>
		<g>
			<g>
				<g>
					<g>
						<defs>
							<path id="SVGID_12_" d="M179.1,40.6c0.2,1,0.1,4.6-0.4,6.3c-0.8,3.1-1.7,3.8-2.3,5.1s-0.2,3.5,1.1,6.4
								c0.5,1.2-0.2,1.7-1.4,1.6c-1.2-0.1-2.2-0.8-2.2-0.8s-0.7,0.8-0.4,1.5c0.4,0.7-1.2,0.8-1.5,0.8c0,0-1.1-0.7-1.9-1.6
								c-0.9-1.1-1.5-0.9-1.2,1.1c0.3,1.9,1.1,2.4,1.1,2.4s0,0.8-0.4,1.3s-0.9-0.3-1.6,0.9c-0.8,1.2-1.2,2-2.4,2
								c-1.2,0-3.2-1.1-4.6-3.4c0,0-0.7-0.7-2.3,0.9c-1.6,1.6-3.2,4.8-3.8,7.3c0,0-1.6,1.2-4.8-0.7c-3.4-1.8-4.8-9-4.8-9
								s7.1-17.4,11.8-21.8s11.8-6.9,16.3-5.7C178,36,179.1,40.6,179.1,40.6z"/>
						</defs>
						<clipPath id="SVGID_14_">
							<use xlink:href="#SVGID_12_"  style="overflow:visible;"/>
						</clipPath>
						<path class="st21" d="M169.1,59.2c0.4-0.1,1,0.3,1.5,0.6c0.6,0.4,1.2,0.8,1.7,1.2c0.3,0.2,0.9,0.4,1.3,0.5l-3.5,3.1l-0.4,0.1
							c0,0-0.6-0.4-0.9-1.8C168.5,61.2,168.3,59.5,169.1,59.2z"/>
					</g>
				</g>
			</g>
		</g>
		<path d="M159.8,30.3c2.2-0.8,6-1.5,11.2,0c5.2,1.5,7.3,4,7.3,4l-2.2,2.5"/>
		<path class="st2" d="M238.1,267.5l5.7,52.5H153c0.4-5.3,1.6-16.6,0.6-20.9c-1.7-7.5-3.1-19.7-4.1-30.6l0,0h-5l-21.5-3.4l-8.2-2.6
			c0,0,2-10.5,4.9-19.4c2.9-8.9,9.2-26.1,17.7-33.7c8.5-7.7,22.5-9.2,30.4-10.7c0.3-0.1,0.6-0.1,0.9-0.2c3.4-0.9,4.3-1.4,8.2-4.6
			c4.4-3.4,11.2-16.1,12.3-20.2c1.2-4.1,1.7-8.6,1.6-10.3c-0.1-0.6-0.2-1.6-0.4-2.5l4.8-1.7c0,0,14.1,31.7,13.3,34
			c-0.8,2.3-1.7,4.7-1.7,4.7c-0.3,0.7,2.2,3.4,4,4.8c0.8,0.6,1.5,1.1,1.6,1.2c2.1,1.4,4.6,2.4,7,3.1c10.5,2.8,26.3,7.4,27.3,22.5
			c0.8,11.2,6.5,31.7,6.5,31.7L238.1,267.5z"/>
		<g>
			<g>
				<g>
					<g>
						<g>
							<defs>
								<path id="SVGID_15_" d="M238.1,267.5l5.7,52.5H153c0.4-5.3,1.6-16.6,0.6-20.9c-1.7-7.5-3.1-19.7-4.1-30.6l0,0h-5l-21.5-3.4
									l-8.2-2.6c0,0,2-10.5,4.9-19.4c2.9-8.9,9.2-26.1,17.7-33.7c8.5-7.7,22.5-9.2,30.4-10.7c0.3-0.1,0.6-0.1,0.9-0.2
									c3.4-0.9,4.3-1.4,8.2-4.6c4.4-3.4,11.2-16.1,12.3-20.2c1.2-4.1,1.7-8.6,1.6-10.3c-0.1-0.6-0.2-1.6-0.4-2.5l4.8-1.7
									c0,0,14.1,31.7,13.3,34c-0.8,2.3-1.7,4.7-1.7,4.7c-0.3,0.7,2.2,3.4,4,4.8c0.8,0.6,1.5,1.1,1.6,1.2c2.1,1.4,4.6,2.4,7,3.1
									c10.5,2.8,26.3,7.4,27.3,22.5c0.8,11.2,6.5,31.7,6.5,31.7L238.1,267.5z"/>
							</defs>
							<clipPath id="SVGID_16_">
								<use xlink:href="#SVGID_15_"  style="overflow:visible;"/>
							</clipPath>
							<g class="st22">
								<path d="M173.8,198.8c-7.2,1.4-28.4,4.1-35.5,14.3c-7,10.2-14.3,37.2-15.9,49.7s-12.8,0.2-12.8,0.2l14.4-52.1l23-16.9
									l14.9-1.8l9.9,2.1L173.8,198.8z"/>
							</g>
						</g>
					</g>
				</g>
				<g>
					<g>
						<g>
							<defs>
								<path id="SVGID_17_" d="M238.1,267.5l5.7,52.5H153c0.4-5.3,1.6-16.6,0.6-20.9c-1.7-7.5-3.1-19.7-4.1-30.6l0,0h-5l-21.5-3.4
									l-8.2-2.6c0,0,2-10.5,4.9-19.4c2.9-8.9,9.2-26.1,17.7-33.7c8.5-7.7,22.5-9.2,30.4-10.7c0.3-0.1,0.6-0.1,0.9-0.2
									c3.4-0.9,4.3-1.4,8.2-4.6c4.4-3.4,11.2-16.1,12.3-20.2c1.2-4.1,1.7-8.6,1.6-10.3c-0.1-0.6-0.2-1.6-0.4-2.5l4.8-1.7
									c0,0,14.1,31.7,13.3,34c-0.8,2.3-1.7,4.7-1.7,4.7c-0.3,0.7,2.2,3.4,4,4.8c0.8,0.6,1.5,1.1,1.6,1.2c2.1,1.4,4.6,2.4,7,3.1
									c10.5,2.8,26.3,7.4,27.3,22.5c0.8,11.2,6.5,31.7,6.5,31.7L238.1,267.5z"/>
							</defs>
							<clipPath id="SVGID_18_">
								<use xlink:href="#SVGID_17_"  style="overflow:visible;"/>
							</clipPath>
							<path class="st23" d="M159.1,235.7c0,0-4,10.7-1.6,27.8c1.6,11.5,6.7,34,2.9,58.9c-4.1,26.7-11,1.7-11,1.3s-1-55.5-1-55.5
								l2.3-0.2c0,0,3.9-22.8,5.3-26.7C157.4,237.5,159.1,235.7,159.1,235.7z"/>
						</g>
					</g>
				</g>
			</g>
		</g>
		<path class="st24" d="M210.9,202.5c-0.8,3-1.4,8.2-12.9,7c-10.3-1.1-23.2-9.6-26.2-12.2c1.5-0.7,2.7-1.6,5.1-3.6
			c4.4-3.4,11.2-16.1,12.3-20.2c1.2-4.1,1.7-8.6,1.6-10.3c-0.1-0.6-0.2-1.6-0.4-2.5l4.8-1.7c0,0,14.1,31.7,13.3,34s-1.7,4.7-1.7,4.7
			C207.6,199.7,209.5,201.3,210.9,202.5z"/>
		<path class="st25" d="M194.2,159.4c0,1.5-0.1,3.2-0.4,5c-1.8,15.1-8,23.4-11.6,28.1c-2.7,3.5-5.9,5.1-8.5,6.2
			c-0.8-0.6-1.5-1.1-1.9-1.5c1.5-0.7,2.7-1.6,5.1-3.6c4.4-3.4,11.2-16.1,12.3-20.2c1.2-4.1,1.7-8.6,1.6-10.3
			c-0.1-0.6-0.2-1.6-0.4-2.5L194.2,159.4z"/>
		<path class="st25" d="M210.9,202.5c0.8,4.5-2.7,6.2-6.7,7c-2.4-4.3-6.6-18-7.3-21.4c-0.8-4-0.2-8.9-0.2-8.9l3.1,1.9l8.4,10
			c0.1,0.4,0.2,0.8,0.3,1.1c0,0.1,0,0.1,0,0.2s0,0.2,0,0.3v0.1c0,0.1,0,0.2,0,0.3c0,0,0,0,0,0.1l0,0c-0.8,2.3-1.7,4.7-1.7,4.7
			C207.7,199.6,209.5,201.3,210.9,202.5z"/>
		<path d="M233.1,231.7c0,0-2,3.8-2.4,6.4s-4.7,27.7-1.3,39.4l4.4-8.9c0,0-2.9-17.2-1.9-28.8C232.1,236.7,233.1,231.7,233.1,231.7z"
			/>
		<path class="st24" d="M238.8,151.5c0.8,4.2-1.7,11.4-2.1,13.1c-0.8,3.3-2.9,3.6-3.8,4.6c-0.9,0.9-1.1,4.1-2.5,8.4
			c-1.5,4.4-3,4.1-8.6,10.7s-8.3,9.1-10.3,8.5c-1.8-0.5-5.6-2.5-9-6.2c-3.4-3.7-5.3-7.8-6.5-13.6c-1.2-5.8,0.2-15.7,3.2-23.5
			c3-7.8,15.4-19.9,24.5-16.3C232.8,140.8,238.8,151.5,238.8,151.5z"/>
		<path class="st25" d="M191.3,170.2c0,0,7-1.5,8.3-12.9l-6.5,4.8"/>
		<path d="M199.1,156.6c1.3,1.6,3,0.6,3.8-0.9c0.8-1.5,3.5-6.6,5.7-7.8c2.2-1.2,4.4-0.2,4.4-0.2c0.9-2.4,3.2-7.3,6-6
			c2.6,1.2,16.1,12.1,20,10.8c0,0,0.9-1.8,0.9-2.6c0-1.2-0.5-2.8-1.2-4.5c-1.2-2.7-3.9-8.1-8.5-12.2c-2.2-1.9-5.1-3.5-8.2-4.7
			c-9.5-3.7-21.8-0.1-26.9,6.6c-8.5,11.2-4.3,22.4-4.3,22.4L199.1,156.6z"/>
		<path d="M235.7,165.3c-0.4-0.8-1.8-1.8-3.5-1.7c-1.6,0.1-2.8,0.5-2.9,0.3c-0.1-0.2,0.8-1.6,2.7-1.8c1.9-0.2,2.7,0.3,3.4,0.7
			c0.7,0.4,1,1.3,1,1.9c0,0.7-0.6,1.7-0.6,1.6S236.2,166.1,235.7,165.3z"/>
		<path d="M223.7,160.4c0.3-0.3,0.5-0.9,0.1-1.8s-4.7-4.5-7.6-4.5c-2.8-0.1-4.8,1.6-5.3,2.1c-0.5,0.4-1.3,1.8-1.3,1.8
			s3.5-1.6,7.1-1.2C220.5,157,223.7,160.4,223.7,160.4z"/>
		<ellipse transform="matrix(0.3194 -0.9476 0.9476 0.3194 -7.8859 317.9892)" cx="217.4" cy="164.5" rx="2.5" ry="2"/>
		<path class="st24" d="M213.1,160.4c0,0,1,0.3,1.5,0.4c0,0,1.4,1.3,3.5,1.9c2.1,0.7,2.6,0.5,3,0.9c0.3,0.4,0.5,0.8,0.5,0.8l1.1-2.6
			l-1.3-2.3l-5.2-1.4"/>
		<ellipse transform="matrix(0.3883 -0.9215 0.9215 0.3883 -15.0445 316.2174)" cx="230.7" cy="169.4" rx="2.1" ry="1.2"/>
		<path class="st24" d="M229.1,170.2c0,0,1.1,0.8,2.2,0.9c0,0-1,0.7-1.6,0.3C229.1,171,229.1,170.2,229.1,170.2z"/>
		<path d="M210.9,176.3c0,0-1.1,2.1,0,5.4c0.7,2,3.4,4.8,6.4,5c1.3,0.2,2.2-0.5,3.8-2.6c0.7-1,1.5-1.2,1.5-1.2s-3.6-0.4-7.4-2.5
			C211.4,178.3,210.9,176.3,210.9,176.3z"/>
		<path class="st4" d="M221.6,182.9L221.6,182.9c-0.2,0.5-0.9,1.6-1.1,1.9c0,0-0.8,0.2-2.1,0c-1.3-0.2-2.9-0.8-4.1-1.6
			c-2.4-1.7-3.6-3.7-3.9-4.1c-0.1-1.7,0.5-2.8,0.5-2.8s0.4,2,4.3,4.2C217.7,181.9,220.4,182.6,221.6,182.9z"/>
		<path class="st26" d="M210.9,176.3c0,0-1.1,2.1,0,5.4c0.7,2,3.4,4.8,6.4,5c1.3,0.2,2.2-0.5,3.8-2.6c0.7-1,1.5-1.2,1.5-1.2
			s-3.6-0.4-7.4-2.5C211.4,178.3,210.9,176.3,210.9,176.3z"/>
		<path class="st25" d="M210.5,186c0,0,1.5,1.4,2.7,2.1s1.8,0.8,1.9,1.1c0.1,0.3-1.7,1.4-3.4,0.3C210,188.3,210.5,186,210.5,186z"/>
		<rect x="211.3" y="315.9" class="st27" width="73.8" height="3.9"/>
		<polygon points="211.3,319.8 168,319.8 166.5,315.9 211.3,315.9 		"/>
		<path class="st28" d="M213.1,161.2c0,0,1,0.3,1.5,0.4c0,0,1.6,0.6,3.7,1.3c2.1,0.7,2.4,0.4,2.7,0.8c0.3,0.4,0.5,0.8,0.5,0.8"/>
		<path class="st24" d="M215.2,165.3c0,0,1.8,1.3,3.5,1.4c0,0-1.7,1-2.6,0.7C215.2,167,215.2,165.3,215.2,165.3z"/>
		<path class="st24" d="M232.8,167.9c0,0-0.1,0.3-0.4,0.2c-1.6-0.4-2.3-1.4-2.7-1.4s-1.2,0.4-1.2,0.4l2.9-3.2l2.7,0.5L232.8,167.9z"
			/>
		<path class="st28" d="M228.4,167.1c0,0,0.6-0.2,1-0.2s1,0.7,2.2,1.1c0.7,0.2,0.7,1,0.7,1s0.4,0.4,1.1,0.3"/>
		<path class="st2" d="M216.5,126.7c-5.4-0.4-8,0.4-11.5,1.7c-0.8,0.3-1.9,1-2.6,1.5c-0.7,0.5-1.1,2.4-1.1,2.4l4.7-1.1
			c1.2-0.4,2.1-0.8,2.1-0.8s2-1.2,7.8-1.6c2.7-0.2,6.5,0.4,9.5,1.6c2.8,1.1,4.8,2.7,4.8,2.7s-0.2-0.8-1.2-1.6c-1-0.9-3.9-2.6-4.6-3
			C222.1,127.4,219.9,126.9,216.5,126.7z"/>
		
			<ellipse transform="matrix(0.1941 -0.981 0.981 0.1941 2.3339 315.5794)" class="st18" cx="193.2" cy="156.4" rx="10.6" ry="6.4"/>
		<path d="M194.3,156.6c-0.8,4.3-2.9,8.1-5.9,7.7c-0.1,0-0.2,0-0.3-0.1l0,0c-1.3-2.1-1.7-5.3-1.2-8.8c0.8-4.2,2.8-7.5,5.2-8.8
			l-0.7,1.7C193.7,149.1,195,152.6,194.3,156.6z"/>
		<path class="st29" d="M190.3,160.8c0,0,4.5,10.9,5.8,12.9c1.4,2,4.9,4.8,4.9,4.8"/>
		<path class="st30" d="M192.3,150.3c0.8-4.3,4.5-11.2,8.4-15.4c1.6-1.6,3.8-3.3,5.3-4.4c0.5-0.3,0.2-1-0.4-0.9
			c-1.2,0.2-2.6,0.6-3.7,1.2c0,0-10.1,7.3-12.5,18.8L192.3,150.3z"/>
		<ellipse transform="matrix(0.1941 -0.981 0.981 0.1941 0.5431 310.635)" class="st2" cx="189.3" cy="155" rx="7.6" ry="4.6"/>
		<path class="st31" d="M218.5,178.3c0,0,1.4,0.1,1.8,0.3c0.5,0.2,1.9,1.4,2.8,1.6s1.6,0.1,1.9-0.6c0.4-0.7,0.2-2.6,0-4.1
			c-0.2-1.5-0.2-6.6,0.8-8.5c0.9-1.9,1.8-2.3,1.8-2.3"/>
		<path class="st31" d="M216.5,176.7c0,0-1.1-0.9-0.2-2.2"/>
		<path class="st31" d="M224.5,183.3c0,0-1,0.3-1.9-0.2c0,0-3.6-0.4-7.4-2.5c-3.8-2.1-4.2-4.2-4.2-4.2s-1.2-0.9-1.3-1.7"/>
		<g>
			<path class="st32" d="M191,149.7c0.2,0.2,0.4,0.3,0.5,0.6"/>
			<path class="st32" d="M185.7,157.2c-0.1-0.9-0.1-1.7,0.1-2.7c0.5-2.8,1.9-4.9,3.5-5.2"/>
		</g>
		<ellipse transform="matrix(0.1547 -0.988 0.988 0.1547 -149.6994 355.2325)" cx="132.7" cy="265.1" rx="2.5" ry="18.2"/>
		<path class="st33" d="M147.9,245.2c0,0,0.5,10.8,1.6,23.2c1,11,2.3,23.2,4.1,30.6c1.3,5.2-0.7,20.9-0.7,20.9h90.9l-5.7-52.5
			l15.2-6.4c0,0-5.1-15.2-6.5-31.7c-0.9-11.2-10.4-16.7-13.6-17.7c-3.2-1.2-5.8-3-11.8-4.3c-4.1-0.8-7.6-2.4-10.6-4.8"/>
		<g>
			<g>
				<path id="SVGID_13_" class="st24" d="M222.1,296.5l-6.2,10c0,0-0.7,0.6-1.4,0.1c-0.7-0.5-0.7-3-0.9-3.7
					c-0.2-0.7-0.7-1.2-0.7-1.2c-1,0.3-7.7,6.4-9.6,7.5c-1.9,1.1-3.7,1.6-5.3,1c-1.6-0.6-4.6-1.5-6.9-1.5c-2.3,0-26.8,0.3-39.2-0.7
					c-16.7-1.3-27.3-5.7-28.8-6.5c-1.5-0.8-1.8-1.6-1.9-5.5c-0.2-4-0.4-20,1.6-34.6l0,0c3,0.2,6.6,0.6,10.4,1.2
					c6.3,1,11.7,2.3,14.8,3.5v0.2c-1.5,8.4-2.6,16.1-2.8,17.6c5.8,2.1,16.6,6.5,27.4,8.7c12.9,2.7,20.5,2.9,20.5,2.9
					c1.9,0,10-4,11.3-4.6c1.3-0.6,1.4-0.6,2.2-0.6s1.7,0.7,1.7,0.7s2.5-0.4,3.4-0.2c1,0.2,1.9,1.2,1.9,1.2s1.9,0.2,2.8,0.4
					C217.4,292.5,222.1,296.5,222.1,296.5z"/>
			</g>
			<g>
				<g>
					<g>
						<defs>
							<path id="SVGID_19_" d="M222.1,296.5l-6.2,10c0,0-0.7,0.6-1.4,0.1c-0.7-0.5-0.7-3-0.9-3.7c-0.2-0.7-0.7-1.2-0.7-1.2
								c-1,0.3-7.7,6.4-9.6,7.5c-1.9,1.1-3.7,1.6-5.3,1c-1.6-0.6-4.6-1.5-6.9-1.5c-2.3,0-26.8,0.3-39.2-0.7
								c-16.7-1.3-27.3-5.7-28.8-6.5c-1.5-0.8-1.8-1.6-1.9-5.5c-0.2-4-0.4-20,1.6-34.6l0,0c3,0.2,6.6,0.6,10.4,1.2
								c6.3,1,11.7,2.3,14.8,3.5v0.2c-1.5,8.4-2.6,16.1-2.8,17.6c5.8,2.1,16.6,6.5,27.4,8.7c12.9,2.7,20.5,2.9,20.5,2.9
								c1.9,0,10-4,11.3-4.6c1.3-0.6,1.4-0.6,2.2-0.6s1.7,0.7,1.7,0.7s2.5-0.4,3.4-0.2c1,0.2,1.9,1.2,1.9,1.2s1.9,0.2,2.8,0.4
								C217.4,292.5,222.1,296.5,222.1,296.5z"/>
						</defs>
						<clipPath id="SVGID_20_">
							<use xlink:href="#SVGID_19_"  style="overflow:visible;"/>
						</clipPath>
						<path class="st34" d="M213.1,301.8c-0.8-0.9-2.9-2.8-3.7-3.1c-0.8-0.3-3.1-1.6-3.6-1.6c0,0-3.6,1.6-6.1,4.4
							c-2.5,2.7-5.3,6.9-8.3,7.4l4.2,3.1c0,0,3.9,1.6,6.8,1.4c2.9-0.3,7.1-4,7.1-4L213.1,301.8z"/>
					</g>
				</g>
			</g>
			<g>
				<g>
					<g>
						<defs>
							<path id="SVGID_21_" d="M222.1,296.5l-6.2,10c0,0-0.7,0.6-1.4,0.1c-0.7-0.5-0.7-3-0.9-3.7c-0.2-0.7-0.7-1.2-0.7-1.2
								c-1,0.3-7.7,6.4-9.6,7.5c-1.9,1.1-3.7,1.6-5.3,1c-1.6-0.6-4.6-1.5-6.9-1.5c-2.3,0-26.8,0.3-39.2-0.7
								c-16.7-1.3-27.3-5.7-28.8-6.5c-1.5-0.8-1.8-1.6-1.9-5.5c-0.2-4-0.4-20,1.6-34.6l0,0c3,0.2,6.6,0.6,10.4,1.2
								c6.3,1,11.7,2.3,14.8,3.5v0.2c-1.5,8.4-2.6,16.1-2.8,17.6c5.8,2.1,16.6,6.5,27.4,8.7c12.9,2.7,20.5,2.9,20.5,2.9
								c1.9,0,10-4,11.3-4.6c1.3-0.6,1.4-0.6,2.2-0.6s1.7,0.7,1.7,0.7s2.5-0.4,3.4-0.2c1,0.2,1.9,1.2,1.9,1.2s1.9,0.2,2.8,0.4
								C217.4,292.5,222.1,296.5,222.1,296.5z"/>
						</defs>
						<clipPath id="SVGID_22_">
							<use xlink:href="#SVGID_21_"  style="overflow:visible;"/>
						</clipPath>
						<path class="st35" d="M148.1,266.2c0,0-18.2-2.1-26.2,4.2l-1.9-12.1l13.3-3.8h16l1.4,2.6"/>
					</g>
				</g>
			</g>
		</g>
		<polygon points="307.5,260.4 230.8,260.4 211.3,315.9 287.4,315.9 309.3,261.6 		"/>
		<path class="st31" d="M145.2,283.9c-6-2.3-10.5-1.2-10.5-1.2"/>
		<g>
			<polygon class="st27" points="307.5,260.4 230.8,260.4 232.5,261.6 309.3,261.6 			"/>
		</g>
		<line class="st3" x1="89.5" y1="320" x2="342.2" y2="320"/>
	</g>
</g>
</svg>
