<?xml version="1.0"?>
<svg width="512" height="512" xmlns="http://www.w3.org/2000/svg" xmlns:svg="http://www.w3.org/2000/svg" preserveAspectRatio="xMidYMid meet" version="1.0">
 <g class="layer">
  <title>Layer 1</title>
  <g fill="#000000" id="svg_1" transform="translate(0.000000,512.000000) scale(0.100000,-0.100000)">
   <path d="m2315,5109c-127,-23 -198,-45 -293,-91c-218,-106 -355,-302 -411,-589c-23,-116 -41,-315 -41,-452c0,-80 -2,-92 -25,-118c-25,-31 -45,-86 -45,-130c0,-56 69,-233 114,-294c13,-16 31,-55 41,-85c29,-91 120,-259 190,-352c154,-205 352,-336 577,-382c219,-45 443,18 653,185c149,118 292,323 366,524c18,50 41,100 50,112c36,49 101,216 106,274c6,66 -13,134 -47,164c-17,16 -20,31 -20,114c0,297 -49,543 -142,726c-60,116 -191,245 -309,303c-93,46 -184,74 -296,91c-84,13 -396,13 -468,0zm-161,-1108c319,-66 622,-96 806,-79c58,6 116,11 129,11c21,2 28,-8 55,-71c17,-41 38,-78 47,-82c10,-6 49,0 107,16c87,24 92,24 118,8c34,-23 44,-53 34,-101c-12,-51 -66,-172 -89,-198c-10,-11 -30,-56 -45,-100c-93,-269 -273,-490 -479,-589c-408,-197 -859,58 -1051,592c-14,41 -37,88 -50,105c-34,44 -86,178 -86,220c0,28 6,40 29,56c27,20 34,20 110,9c101,-14 100,-15 162,130c24,56 48,102 52,102c5,0 73,-13 151,-29z" fill="#eb4034" id="svg_2"/>
   <path d="m1605,2781c-126,-26 -248,-57 -271,-69c-50,-25 -120,-94 -144,-141c-9,-20 -141,-436 -291,-926c-267,-868 -274,-892 -274,-975c0,-70 4,-93 23,-130c33,-64 106,-135 166,-162c49,-22 61,-23 311,-23l260,0l3,615l2,615l67,67l67,68l472,0c259,0 473,2 476,5c3,3 -131,252 -297,553c-223,402 -308,547 -321,549c-11,1 -122,-20 -249,-46z" fill="#eb4034" id="svg_3"/>
   <path d="m2947,2282c-167,-301 -302,-550 -300,-554c2,-5 234,-8 514,-8l511,0l64,-62l64,-61l2,-621l3,-621l225,0c214,0 228,1 276,23c60,27 133,98 166,162c19,37 23,60 23,130c0,83 -7,107 -274,975c-150,490 -281,906 -291,925c-25,50 -91,115 -142,141c-26,13 -131,38 -273,65c-126,24 -238,46 -247,48c-14,3 -80,-109 -321,-542z" fill="#eb4034" id="svg_4"/>
   <path d="m1645,1458c-3,-7 -4,-258 -3,-558l3,-545l950,0l950,0l0,555l0,555l-948,3c-753,2 -949,0 -952,-10z" fill="#eb4034" id="svg_5"/>
   <path d="m1127,233c-4,-3 -7,-57 -7,-120l0,-113l1440,0l1441,0l-3,118l-3,117l-1431,3c-787,1 -1434,-1 -1437,-5z" fill="#eb4034" id="svg_6"/>
  </g>
 </g>
</svg>