<?xml version="1.0"?>
<svg width="650" height="650" xmlns="http://www.w3.org/2000/svg" xmlns:svg="http://www.w3.org/2000/svg" preserveAspectRatio="xMidYMid meet" version="1.0">
 <g class="layer">
  <title>Layer 1</title>
  <g fill="#000000" id="svg_1" transform="translate(0.000000,650.000000) scale(0.100000,-0.100000)">
   <path d="m2978,6471c-134,-43 -252,-156 -305,-291c-14,-37 -18,-93 -22,-320c-6,-272 -6,-276 -33,-333c-78,-165 -268,-268 -440,-237c-109,20 -141,42 -333,230c-99,97 -196,186 -215,197c-138,83 -332,84 -475,3c-29,-17 -117,-97 -207,-187c-123,-124 -162,-170 -181,-213c-48,-108 -58,-212 -32,-315c30,-112 57,-151 240,-335c191,-194 219,-234 235,-349c25,-176 -73,-352 -237,-429c-57,-27 -61,-27 -333,-32c-250,-5 -280,-8 -328,-27c-113,-46 -186,-107 -246,-206c-53,-89 -66,-165 -66,-379c0,-264 28,-355 144,-467c120,-115 176,-130 477,-131c250,-1 305,-10 385,-56c68,-40 130,-108 166,-182c31,-63 33,-74 33,-172c0,-159 -12,-180 -240,-410c-150,-152 -189,-197 -210,-243c-59,-133 -56,-281 9,-412c29,-59 59,-94 193,-226c167,-164 211,-194 321,-218c111,-23 232,-6 324,47c26,15 128,105 227,200c135,130 194,179 235,198c203,93 433,9 533,-194l38,-76l5,-280l5,-281l38,-77c65,-134 175,-223 314,-254c104,-23 465,-16 538,11c101,37 201,116 250,200c55,93 58,112 64,401l6,270l37,75c39,79 107,153 170,186l37,20l-179,178l-179,179l-73,-17c-40,-9 -100,-22 -133,-29c-84,-18 -477,-17 -570,1c-203,39 -326,78 -491,157c-394,187 -715,530 -879,939c-143,356 -164,784 -56,1155c182,629 710,1117 1352,1250c504,103 1038,-20 1444,-333c330,-255 574,-639 655,-1030c58,-281 51,-592 -19,-833c-9,-31 -6,-35 175,-215c101,-101 184,-179 184,-172c0,23 81,118 127,149c103,68 137,74 402,74c261,0 296,5 403,62c103,55 191,170 224,293c20,73 19,432 -1,508c-35,136 -125,247 -249,307l-70,35l-278,7c-243,7 -285,11 -329,29c-200,78 -307,279 -254,477c10,37 25,81 33,97c8,17 94,111 192,210c194,196 221,235 247,359c18,85 11,172 -19,254c-30,81 -47,103 -209,270c-153,158 -195,188 -306,217c-109,29 -246,14 -346,-36c-23,-12 -122,-100 -222,-198c-123,-121 -195,-184 -227,-199c-192,-89 -414,-27 -521,145c-59,95 -61,107 -67,408l-5,280l-32,68c-57,119 -167,212 -300,252c-76,23 -469,20 -545,-4z" fill="#eb4034" id="svg_2"/>
   <path d="m3155,4594c-63,-5 -168,-22 -219,-35l-39,-10l320,-322c289,-291 323,-329 356,-394c165,-334 7,-745 -350,-910c-106,-49 -196,-66 -318,-60c-124,6 -229,43 -325,116c-36,27 -192,178 -347,337c-156,158 -285,285 -287,283c-14,-14 -39,-184 -43,-297c-17,-398 130,-762 416,-1035c384,-365 934,-474 1421,-282l91,36l665,-657c366,-362 682,-669 702,-683c82,-56 228,-76 337,-47c136,36 247,129 310,261c34,70 39,89 43,174c5,106 -14,180 -63,250c-13,20 -323,330 -688,690l-663,654l33,84c61,153 84,269 90,453c6,194 -8,301 -61,462c-155,473 -540,814 -1026,908c-98,19 -268,30 -355,24zm2381,-3312c81,-42 124,-113 124,-204c0,-67 -26,-123 -77,-169c-51,-47 -100,-62 -174,-57c-70,5 -127,40 -173,106c-43,60 -48,157 -14,221c62,115 202,161 314,103z" fill="#eb4034" id="svg_3"/>
  </g>
 </g>
</svg>